STARTFONT 2.3
FONT -FontForge-Zen Loop-Book-R-Normal--36-360-72-72-P-114-ISO10646-1
SIZE 36 72 72  4
FONTBOUNDINGBOX 31 40 -4 -10
COMMENT "Generated by fontforge, http://fontforge.sourceforge.net"
COMMENT "Copyright 2021 The Zen-Loop Project Authors (https://github.com/googlefonts/zen-loop)"
STARTPROPERTIES 40
FOUNDRY "FontForge"
FAMILY_NAME "Zen Loop"
WEIGHT_NAME "Book"
SLANT "R"
SETWIDTH_NAME "Normal"
ADD_STYLE_NAME ""
PIXEL_SIZE 36
POINT_SIZE 360
RESOLUTION_X 72
RESOLUTION_Y 72
SPACING "P"
AVERAGE_WIDTH 114
CHARSET_REGISTRY "ISO10646"
CHARSET_ENCODING "1"
FONTNAME_REGISTRY ""
CHARSET_COLLECTIONS "ISO10646-1"
BITS_PER_PIXEL 4
FONT_NAME "ZenLoop-Regular"
FACE_NAME "Zen Loop Regular"
COPYRIGHT "Copyright 2021 The Zen-Loop Project Authors (https://github.com/googlefonts/zen-loop)"
FONT_VERSION "1.000; ttfautohint (v1.8.3)"
FONT_ASCENT 29
FONT_DESCENT 7
UNDERLINE_POSITION -5
UNDERLINE_THICKNESS 1
X_HEIGHT 16
CAP_HEIGHT 24
RAW_ASCENT 800
RAW_DESCENT 200
NORM_SPACE 9
RELATIVE_WEIGHT 40
RELATIVE_SETWIDTH 50
SUPERSCRIPT_X 0
SUPERSCRIPT_Y 12
SUPERSCRIPT_SIZE 21
SUBSCRIPT_X 0
SUBSCRIPT_Y 2
SUBSCRIPT_SIZE 21
AVG_LOWERCASE_WIDTH 102
AVG_UPPERCASE_WIDTH 136
ENDPROPERTIES
CHARS 248
STARTCHAR CR
ENCODING 13
SWIDTH 600 0
DWIDTH 22 0
BBX 1 1 0 0
BITMAP
00
ENDCHAR
STARTCHAR space
ENCODING 32
SWIDTH 240 0
DWIDTH 9 0
BBX 1 1 0 0
BITMAP
00
ENDCHAR
STARTCHAR exclam
ENCODING 33
SWIDTH 141 0
DWIDTH 5 0
BBX 1 25 2 0
BITMAP
A0
C0
C0
C0
C0
C0
C0
C0
C0
C0
C0
C0
C0
C0
C0
C0
C0
B0
00
00
00
A0
C0
C0
A0
ENDCHAR
STARTCHAR quotedbl
ENCODING 34
SWIDTH 195 0
DWIDTH 7 0
BBX 5 7 1 18
BITMAP
380830
380830
380830
380830
380830
380830
380830
ENDCHAR
STARTCHAR numbersign
ENCODING 35
SWIDTH 454 0
DWIDTH 16 0
BBX 16 25 0 0
BITMAP
0000002800001900
0000005600004800
0000008400006500
000000A100009300
000000B00000B000
000001B00000C000
000003800001A000
0000066000048000
007BBECBBBBDCBB6
00000B1000093000
00000C00000B0000
00001B00000C0000
00003800002A0000
0000660000470000
0000830000750000
0000B10000920000
0000B00000B00000
2BBCEBBBBBEBBB00
0004800002A00000
0007500005700000
000A200008400000
000B00000B100000
000B00000C000000
003800001A000000
0055000037000000
ENDCHAR
STARTCHAR dollar
ENCODING 36
SWIDTH 356 0
DWIDTH 13 0
BBX 12 32 0 -3
BITMAP
000000100000
000002900000
000002900000
000002900000
00017CEB7000
002C73906B00
00B402900580
03A0029000B0
066002900000
065002900000
057002900000
01B002900000
009502900000
001B42900000
0001B8900000
000009B00000
000002DB1000
00000293C300
000002902B30
0000029001C1
000002900076
00000290002A
24000290001B
2A0002900039
0B2002900076
04B0029002C1
006B32905C30
0003ACEB8100
000002900000
000002900000
000002900000
000001700000
ENDCHAR
STARTCHAR percent
ENCODING 37
SWIDTH 470 0
DWIDTH 17 0
BBX 15 25 1 0
BITMAP
008CC50000008000
07800A4000057000
0C0001B0000B1000
480000B1002A0000
6500008400940000
8400007501B00000
8400007506600000
660000840B100000
390000C149000000
0C1002A0A2000000
05A01B31B0000000
006BB40750000000
0000000C00000000
0000005705BB5000
000000B15A11A400
000002A0B1001B00
00000932A0000A20
00001B0570000750
0000660650000570
0000C10750000570
0004800570000750
000A2002A0000A20
002B0000C1001C00
0085000059009500
00A0000007CB6000
ENDCHAR
STARTCHAR ampersand
ENCODING 38
SWIDTH 520 0
DWIDTH 19 0
BBX 17 25 1 0
BITMAP
0000007CB700000000
000006900960000000
00000C1002B0000000
00001B0000C0000000
0000290000B0000000
00002A000390000000
00001B000930000000
00000C004A00000000
00000B12C100000000
0000085B2000000000
000005D20000000000
00002BB00000000000
0002C2A200003BB300
002C20570001C11B00
00B3001C0008500400
07700009400C000000
0C000002A038000000
48000000A384000000
750000002BC0000000
840000000890000000
750000000AC2000000
480000003A3B100000
0D100001C204B10000
05B1002B40004B3000
004BBBA30000029C60
ENDCHAR
STARTCHAR quotesingle
ENCODING 39
SWIDTH 121 0
DWIDTH 4 0
BBX 2 7 1 18
BITMAP
38
38
38
38
38
38
38
ENDCHAR
STARTCHAR parenleft
ENCODING 40
SWIDTH 233 0
DWIDTH 8 0
BBX 6 30 2 -2
BITMAP
000010
0000A2
000390
000B20
003900
009300
00C000
048000
093000
0C0000
1B0000
390000
570000
650000
750000
740000
750000
660000
470000
290000
0C0000
0B1000
084000
039000
00C000
008500
002A00
000A30
0002B0
000082
ENDCHAR
STARTCHAR parenright
ENCODING 41
SWIDTH 233 0
DWIDTH 8 0
BBX 5 30 1 -3
BITMAP
A10000
570000
0C1000
058000
00C000
008400
003900
000C00
000920
000650
000380
0001A0
0000B0
0000B0
0000C0
0000B0
0000B0
0001B0
000390
000560
000830
000B00
002A00
007500
00C000
039000
0A2000
490000
B20000
100000
ENDCHAR
STARTCHAR asterisk
ENCODING 42
SWIDTH 313 0
DWIDTH 11 0
BBX 9 8 1 17
BITMAP
0000A00000
0000B00000
1100B00020
4BA5C49B60
0027FA3000
00096C1000
006904A000
01B0008400
ENDCHAR
STARTCHAR plus
ENCODING 43
SWIDTH 577 0
DWIDTH 21 0
BBX 18 17 1 0
BITMAP
000000000A00000000
000000000B00000000
000000000B00000000
000000000B00000000
000000000B00000000
000000000B00000000
000000000B00000000
000000000B00000000
1BBBBBBBBEBBBBBBBA
000000000B00000000
000000000B00000000
000000000B00000000
000000000B00000000
000000000B00000000
000000000B00000000
000000000B00000000
000000000A00000000
ENDCHAR
STARTCHAR comma
ENCODING 44
SWIDTH 145 0
DWIDTH 5 0
BBX 4 7 0 -3
BITMAP
0040
00B1
00B1
00B1
00B0
02C0
2C30
ENDCHAR
STARTCHAR hyphen
ENCODING 45
SWIDTH 286 0
DWIDTH 10 0
BBX 8 1 1 10
BITMAP
5BBBBBB9
ENDCHAR
STARTCHAR period
ENCODING 46
SWIDTH 181 0
DWIDTH 7 0
BBX 2 4 2 0
BITMAP
19
2A
2A
19
ENDCHAR
STARTCHAR slash
ENCODING 47
SWIDTH 292 0
DWIDTH 11 0
BBX 11 29 0 -2
BITMAP
000000000730
000000000C00
000000002900
000000007400
00000000B000
00000002A000
000000075000
0000000B0000
0000002A0000
000000750000
000000B00000
000002A00000
000007500000
00000B000000
00002A000000
000075000000
0000B1000000
0002A0000000
000750000000
000B10000000
002A00000000
007500000000
00B100000000
02A000000000
075000000000
0B1000000000
2A0000000000
750000000000
A10000000000
ENDCHAR
STARTCHAR zero
ENCODING 48
SWIDTH 378 0
DWIDTH 14 0
BBX 12 25 1 0
BITMAP
0003BBC80000
002C20069000
00B300008500
03A000001B00
085000000A20
0C1000000560
1C00000002A0
3900000000C0
5700000000C0
7600000000B0
7500000000B2
8400000000A2
8400000000A2
8400000000A2
7500000000B2
6600000000B0
5700000000C0
3900000000C0
1C00000002A0
0C1000000560
084000000A20
03A000001B00
00B300008500
002C2006A000
0003BBC80000
ENDCHAR
STARTCHAR one
ENCODING 49
SWIDTH 303 0
DWIDTH 11 0
BBX 10 25 1 0
BITMAP
0028D00000
4BA4B00000
3200B00000
0000B00000
0000B00000
0000B00000
0000B00000
0000B00000
0000B00000
0000B00000
0000B00000
0000B00000
0000B00000
0000B00000
0000B00000
0000B00000
0000B00000
0000B00000
0000B00000
0000B00000
0000B00000
0000B00000
0000B00000
0000B00000
BBBBEBBBB3
ENDCHAR
STARTCHAR two
ENCODING 50
SWIDTH 343 0
DWIDTH 12 0
BBX 12 25 0 0
BITMAP
00029BBB6000
003C40007900
00C200000930
056000000390
0000000000B0
0000000000B0
0000000000B0
0000000000B0
000000000390
000000000850
000000000C00
000000007600
00000003B000
0000001C2000
000000A40000
000007700000
00004B000000
0001C1000000
000A40000000
005900000000
00C100000000
066000000000
0B0000000000
290000000000
3DBBBBBBBBB4
ENDCHAR
STARTCHAR three
ENCODING 51
SWIDTH 377 0
DWIDTH 14 0
BBX 12 25 1 0
BITMAP
0004BBC91000
006A1005B000
02B000008600
073000001B00
000000000D00
000000000C00
000000000C00
000000000C00
000000004800
00000000B200
0018BBB99000
00B403BAA100
008BC9303A00
000000000750
0000000001A0
0000000000C0
0000000000B1
0000000000A2
0000000000B1
0000000000C0
0000000002A0
000000000940
A30000004B00
1B710006C100
006BBBB71000
ENDCHAR
STARTCHAR four
ENCODING 52
SWIDTH 389 0
DWIDTH 14 0
BBX 12 25 1 0
BITMAP
000000037000
0000000A2000
0000002B0000
000000840000
000001C00000
000006600000
00000B100000
000048000000
0000A200A000
0002A000B000
00084000B000
001C0000B000
00660000B000
00C10000B000
04800000B000
0A200000B000
2A000000B000
94000000B000
BBBBBBBBEBB7
00000000B000
00000000B000
00000000B000
00000000B000
00000000B000
00000000A000
ENDCHAR
STARTCHAR five
ENCODING 53
SWIDTH 372 0
DWIDTH 13 0
BBX 12 27 1 0
BITMAP
000000000030
000000001690
002DBBBBB700
003900000000
003900000000
003900000000
003900000000
003900000000
003900000000
003900000000
003900000000
003900000000
004DBBA50000
04C90017B100
1B4800004A00
756600000850
83B2000002A0
3C70000000C0
0000000000B1
0000000000A2
0000000000B1
0000000000C0
0000000002A0
000000000850
920000003B00
2C610006C100
006BBBB71000
ENDCHAR
STARTCHAR six
ENCODING 54
SWIDTH 360 0
DWIDTH 13 0
BBX 11 25 1 0
BITMAP
0000004A0000
000003C20000
00001C200000
0000B4000000
000680000000
000C10000000
006700000000
00C100000000
039000000000
094000000000
0C0000000000
1B017BBA3000
481C6002A400
667300000B10
750000000660
8400000002A0
8400000000C0
8400000000C0
7500000000C0
4800000002A0
1B0000000660
0B2000000B20
05A000005900
00980006C100
0007CBC91000
ENDCHAR
STARTCHAR seven
ENCODING 55
SWIDTH 321 0
DWIDTH 12 0
BBX 10 25 1 0
BITMAP
BBBBBBBBE3
00000000B0
0000000290
0000000740
0000000B00
0000002900
0000007500
000000B000
000002A000
0000065000
00000B1000
00001A0000
0000650000
0000B10000
0001A00000
0006600000
000A100000
001B000000
0066000000
00A1000000
01B0000000
0560000000
0A10000000
1B00000000
4600000000
ENDCHAR
STARTCHAR eight
ENCODING 56
SWIDTH 377 0
DWIDTH 14 0
BBX 12 25 1 0
BITMAP
0006BBBA3000
00A70002B500
077000001C10
0C0000000660
1B0000000390
2A00000002A0
0B0000000390
0B1000000850
059000001C00
00A60000B300
000B701B5000
00008BC30000
0001A8B60000
002C30089000
02C300008800
0B4000000A40
2B00000002A0
6600000000C0
8400000000A1
8400000000B1
6600000000C0
1B0000000390
095000000B30
01B60002A600
0006BBBA3000
ENDCHAR
STARTCHAR nine
ENCODING 57
SWIDTH 360 0
DWIDTH 13 0
BBX 11 25 1 0
BITMAP
0019CBC60000
01C500198000
0A400000B400
2B0000003A00
750000000C10
B10000000840
C00000000660
C00000000570
C00000000480
B10000000570
750000000660
1B0000046750
05A1006B1930
004ABB700C00
000000001B00
000000005800
00000000A200
00000001B000
000000086000
0000001C0000
000000950000
000005A00000
00002C100000
0002C3000000
000B30000000
ENDCHAR
STARTCHAR colon
ENCODING 58
SWIDTH 181 0
DWIDTH 7 0
BBX 2 18 2 0
BITMAP
19
2A
2A
19
00
00
00
00
00
00
00
00
00
00
19
2A
2A
19
ENDCHAR
STARTCHAR semicolon
ENCODING 59
SWIDTH 165 0
DWIDTH 6 0
BBX 4 21 0 -3
BITMAP
00A0
00B0
00B0
00A0
0000
0000
0000
0000
0000
0000
0000
0000
0000
0000
0040
00B1
00B1
00B1
00B0
02C0
2C30
ENDCHAR
STARTCHAR less
ENCODING 60
SWIDTH 482 0
DWIDTH 17 0
BBX 15 15 1 1
BITMAP
0000000000000430
000000000004B910
0000000003B92000
00000003B9200000
000003A920000000
0003AA2000000000
03AA200000000000
1E80000000000000
018C500000000000
00018C5000000000
0000018C50000000
000000018C500000
00000000018C5000
0000000000018B30
0000000000000120
ENDCHAR
STARTCHAR equal
ENCODING 61
SWIDTH 577 0
DWIDTH 21 0
BBX 18 7 1 5
BITMAP
1BBBBBBBBBBBBBBBBA
000000000000000000
000000000000000000
000000000000000000
000000000000000000
000000000000000000
1BBBBBBBBBBBBBBBBA
ENDCHAR
STARTCHAR greater
ENCODING 62
SWIDTH 482 0
DWIDTH 17 0
BBX 15 15 1 1
BITMAP
0300000000000000
19B3000000000000
002AB30000000000
00002AA300000000
0000002AA3000000
000000003AA30000
00000000003AA300
0000000000004E50
000000000017C500
0000000017C50000
00000017C6000000
000007C600000000
0006C60000000000
06C6000000000000
1600000000000000
ENDCHAR
STARTCHAR question
ENCODING 63
SWIDTH 300 0
DWIDTH 11 0
BBX 8 25 1 0
BITMAP
03ABBB20
3B2002C1
B2000067
2000001B
0000000C
0000002A
00000067
000000C1
00000680
00001C10
00009500
0004A000
000C1000
00480000
00840000
00750000
002B0000
00074000
00000000
00000000
00000000
000A1000
000A1000
000A1000
000A1000
ENDCHAR
STARTCHAR at
ENCODING 64
SWIDTH 748 0
DWIDTH 27 0
BBX 25 25 1 0
BITMAP
0000000048BBBBBB7200000000
0000006C830000015AA2000000
00002B8100000000003C500000
0002C300000007B90001A70000
001C20000000A60760000A5000
00A4000000086002A00001C100
04A0000000490001A000005700
0A30000000C100039000000C00
1C000000067000046000000930
480000000C1000000000000650
66000000580000000000000570
84000000B20007B20000000470
84000001B00057750000000660
840000057000B0830000000830
66000009300290C00000000C00
4800000B100565800000004800
1C00000B00065C10000001B100
0A30000B0005D7000000094000
04A0000B0006D0000000A60000
00A40009307A8920016B400000
001C2001BB6005ABBA61000000
0002C300000000000000194000
00002B81000000000004C50000
0000006C8400000026B8200000
0000000048BBBBBB9510000000
ENDCHAR
STARTCHAR A
ENCODING 65
SWIDTH 414 0
DWIDTH 15 0
BBX 15 25 0 0
BITMAP
0000000C00000000
0000004F20000000
0000008B60000000
000000C3A0000000
000001C0C0000000
00000580A3000000
0000094067000000
00000D102B000000
00002B000C100000
0000670009400000
0000A30005800000
0000D00001C00000
0003B00000C10000
0007700000850000
000B300000490000
001EBBBBBBCD0000
004A0000000C2000
0085000000077000
00C100000003B000
01C000000000D000
0570000000009400
0930000000005800
0C00000000001B00
2A00000000000B10
5500000000000740
ENDCHAR
STARTCHAR B
ENCODING 66
SWIDTH 375 0
DWIDTH 14 0
BBX 10 25 2 0
BITMAP
CBBBBB5000
C000019700
C000000A30
C000000390
C0000000C0
C0000000A2
C000000083
C000000084
C000000084
C000000093
C07CB710C1
C0C005C5B0
C06A105F40
C004BBB990
C0000000C1
C000000075
C000000049
C00000002A
C00000002A
C000000039
C000000066
C0000000C1
C000000770
C000019900
CBBBBB5000
ENDCHAR
STARTCHAR C
ENCODING 67
SWIDTH 366 0
DWIDTH 13 0
BBX 11 25 1 0
BITMAP
00004BBBB710
0008A20006A0
005A00000000
00C100000000
067000000000
0B2000000000
0C0000000000
3A0000000000
570000000000
660000000000
750000000000
840000000000
840000000000
840000000000
750000000000
660000000000
570000000000
3A0000000000
0C0000000000
0B2000000000
067000000000
00C100000000
005900000000
0008A20005A0
00004BBBC710
ENDCHAR
STARTCHAR D
ENCODING 68
SWIDTH 396 0
DWIDTH 14 0
BBX 11 25 2 0
BITMAP
CBBBBB920000
C000004C2000
C0000002B000
C00000007500
C00000001B00
C00000000B10
C00000000840
C00000000570
C00000000390
C000000001A0
C000000001B0
C000000000C0
C000000000C0
C000000000C0
C000000001B0
C000000001A0
C00000000390
C00000000570
C00000000840
C00000000B10
C00000001B00
C00000007600
C0000002C000
C000004C2000
CBBBBB920000
ENDCHAR
STARTCHAR E
ENCODING 69
SWIDTH 309 0
DWIDTH 11 0
BBX 8 25 2 0
BITMAP
CBBBBBB7
C0000000
C0000000
C0000000
C0000000
C0000000
C0000000
C0000000
C0000000
C0000000
C0000000
CBBBBBB3
C0000000
C0000000
C0000000
C0000000
C0000000
C0000000
C0000000
C0000000
C0000000
C0000000
C0000000
C0000000
CBBBBBB7
ENDCHAR
STARTCHAR F
ENCODING 70
SWIDTH 299 0
DWIDTH 11 0
BBX 8 25 2 0
BITMAP
CBBBBBB7
C0000000
C0000000
C0000000
C0000000
C0000000
C0000000
C0000000
C0000000
C0000000
C0000000
CBBBBBB3
C0000000
C0000000
C0000000
C0000000
C0000000
C0000000
C0000000
C0000000
C0000000
C0000000
C0000000
C0000000
A0000000
ENDCHAR
STARTCHAR G
ENCODING 71
SWIDTH 382 0
DWIDTH 14 0
BBX 12 25 1 0
BITMAP
00004BBBB710
0008A20006A0
005A00000000
00C100000000
067000000000
0B2000000000
0C0000000000
3A0000000000
570000000000
660000000000
750000000000
840000000000
840000000000
840000000000
7500007BBBC4
660000000075
570000000075
390000000075
0C0000000075
0B2000000075
067000000075
00C100000075
005900000075
0008A20005B1
00004BBBB710
ENDCHAR
STARTCHAR H
ENCODING 72
SWIDTH 425 0
DWIDTH 15 0
BBX 12 25 2 0
BITMAP
A00000000092
C00000000092
C00000000092
C00000000092
C00000000092
C00000000092
C00000000092
C00000000092
C00000000092
C00000000092
C00000000092
CBBBBBBBBBE2
C00000000092
C00000000092
C00000000092
C00000000092
C00000000092
C00000000092
C00000000092
C00000000092
C00000000092
C00000000092
C00000000092
C00000000092
A00000000092
ENDCHAR
STARTCHAR I
ENCODING 73
SWIDTH 141 0
DWIDTH 5 0
BBX 1 25 2 0
BITMAP
A0
C0
C0
C0
C0
C0
C0
C0
C0
C0
C0
C0
C0
C0
C0
C0
C0
C0
C0
C0
C0
C0
C0
C0
A0
ENDCHAR
STARTCHAR J
ENCODING 74
SWIDTH 142 0
DWIDTH 5 0
BBX 6 32 -3 -7
BITMAP
00000A
00000B
00000B
00000B
00000B
00000B
00000B
00000B
00000B
00000B
00000B
00000B
00000B
00000B
00000B
00000B
00000B
00000B
00000B
00000B
00000B
00000B
00000B
00000B
00000B
00000B
00000B
00000B
000038
0000A2
002A60
BBA300
ENDCHAR
STARTCHAR K
ENCODING 75
SWIDTH 401 0
DWIDTH 14 0
BBX 13 25 0 0
BITMAP
000A00000004A0
000B0000002C20
000B000000A400
000B000002B000
000B0000094000
000B00000C0000
000B0000480000
000B0000930000
000B0001B00000
000B0008400000
16AEBB9B000000
B41B3989700000
8BBE7300770000
000B00000A3000
000B000002A000
000B000000B100
000B0000007500
000B0000003800
000B0000000B00
000B0000000B00
000B0000000930
000B0000000660
000B0000000390
000B00000000B0
000A00000000B0
ENDCHAR
STARTCHAR L
ENCODING 76
SWIDTH 347 0
DWIDTH 12 0
BBX 10 25 2 0
BITMAP
A000000000
C000000000
C000000000
C000000000
C000000000
C000000000
C000000000
C000000000
C000000000
C000000000
C000000000
C000000000
C000000000
C000000000
C000000000
C000000000
C000000000
C000000000
C000000000
C000000000
C000000000
C000000000
C000000000
C000000000
CBBBBBBBB4
ENDCHAR
STARTCHAR M
ENCODING 77
SWIDTH 534 0
DWIDTH 19 0
BBX 17 25 1 0
BITMAP
00A50000000003D000
00BA700000004CC000
00B098000005B1A100
00B007A0007A009200
00B0006A0890008400
01A00005D800007500
02900004D800006600
0380000B1B10005700
0470002A0750004800
056000380560003900
0650001B0840002A00
0740000B3C00001B00
08300003E600000B00
09200000E300000B00
0A100005B800000B00
0B0000093C00000B00
0B00000A1C00000B10
0B00000A2C00000A20
0B0000069A00000930
0B0000008200000840
1A0000000000000750
290000000000000660
380000000000000570
470000000000000480
550000000000000280
ENDCHAR
STARTCHAR N
ENCODING 78
SWIDTH 422 0
DWIDTH 15 0
BBX 11 25 2 0
BITMAP
B100000000A0
D600000000B0
CB00000000B0
C840000000B0
C2A0000000B0
C0B1000000B0
C057000000B0
C00C000000B0
C007500000B0
C001B00000B0
C000A20000B0
C000390000B0
C0000B1000B0
C000066000B0
C00001B000B0
C000008400B0
C000002A00B0
C000000B10B0
C000000570B0
C0000000C0B0
C000000075B0
C00000001BB0
C00000000AD0
C000000003F0
A000000000B0
ENDCHAR
STARTCHAR O
ENCODING 79
SWIDTH 446 0
DWIDTH 16 0
BBX 14 25 1 0
BITMAP
00005BBBB50000
0008A100199000
005A0000008600
01C10000000C10
06700000000660
0B2000000001B0
0C0000000000C1
3A000000000093
57000000000075
66000000000057
75000000000048
84000000000039
84000000000039
84000000000039
75000000000048
66000000000057
57000000000075
3A000000000093
0C0000000000C1
0B2000000001B0
06700000000660
01C10000000C10
00590000008600
0008A100199000
00005BBBB50000
ENDCHAR
STARTCHAR P
ENCODING 80
SWIDTH 341 0
DWIDTH 12 0
BBX 10 25 2 0
BITMAP
CBBBBC7000
C000006B00
C000000860
C0000002C0
C0000000C1
C0000000A2
C000000093
C0000000A2
C0000000C0
C000000480
C000001C10
C20005C400
CABBB81000
C000000000
C000000000
C000000000
C000000000
C000000000
C000000000
C000000000
C000000000
C000000000
C000000000
C000000000
A000000000
ENDCHAR
STARTCHAR Q
ENCODING 81
SWIDTH 446 0
DWIDTH 16 0
BBX 14 35 1 -10
BITMAP
00005BBBB50000
0008A100199000
005A0000008600
01C10000000C10
06700000000660
0B2000000001B0
0C0000000000C1
3A000000000093
57000000000075
66000000000057
75000000000048
84000000000039
84000000000039
84000000000039
75000000000048
6B100000000077
5BB100000007E5
3A3B2000008893
0C02B3000A60C1
0B201B41B501B0
067001BC400660
01C100AD100C10
006903A4908600
00099940C99000
00005DCBE50000
00000750C00000
000002B4800000
0000009D100000
0000005C000000
000000BB200000
000000B6600000
000002A4800000
000001B5700000
000000BA300000
00000025000000
ENDCHAR
STARTCHAR R
ENCODING 82
SWIDTH 380 0
DWIDTH 14 0
BBX 13 25 0 0
BITMAP
00DBBBBB910000
00B000004B1000
00B00000059000
00B0000000C100
00B00000008400
00B00000007600
00B00000005700
00B00000006600
00B00000008400
00B0000000C000
39EBA710068000
C0B016C54B0000
9AC0003EC10000
04ECBB94B30000
00B000001B0000
00B00000084000
00B0000002A000
00B0000000C000
00B00000009300
00B00000005700
00B00000001B00
00B00000000C00
00B00000000840
00B00000000480
00A000000001A0
ENDCHAR
STARTCHAR S
ENCODING 83
SWIDTH 356 0
DWIDTH 13 0
BBX 12 25 0 0
BITMAP
00018BBB8100
002C40004B10
00C200000490
039000000090
066000000000
066000000000
057000000000
02B000000000
00A300000000
002C10000000
0004C2000000
00003C300000
000002B50000
0000001A7000
000000008800
000000000860
0000000000C1
000000000067
00000000002A
13000000001B
29000000003A
0B1000000076
04A0000002C1
006A20004C30
0003ABBC9200
ENDCHAR
STARTCHAR T
ENCODING 84
SWIDTH 377 0
DWIDTH 14 0
BBX 14 25 0 0
BITMAP
6BBBBBECBBBBB2
00000092000000
00000092000000
00000092000000
00000092000000
00000092000000
00000092000000
00000092000000
00000092000000
00000092000000
00000092000000
00000092000000
00000092000000
00000092000000
00000092000000
00000092000000
00000092000000
00000092000000
00000092000000
00000092000000
00000092000000
00000092000000
00000092000000
00000092000000
00000082000000
ENDCHAR
STARTCHAR U
ENCODING 85
SWIDTH 412 0
DWIDTH 15 0
BBX 12 25 1 0
BITMAP
38000000000A
38000000000B
38000000000B
38000000000B
38000000000B
38000000000B
38000000000B
38000000000B
38000000000B
38000000000B
38000000000B
38000000000B
38000000000B
38000000000B
38000000000B
38000000000B
38000000000B
38000000000B
38000000000B
39000000000B
1A000000000B
0C000000002A
0670000000A4
00A810002A70
0005BBBBA400
ENDCHAR
STARTCHAR V
ENCODING 86
SWIDTH 384 0
DWIDTH 14 0
BBX 14 25 0 0
BITMAP
55000000000073
390000000000B0
0B0000000001B0
0A100000000470
07500000000840
03900000000B00
00B00000000B00
00A10000004800
00740000007400
0038000000B100
000B000000B000
000B1000038000
00074000074000
000380000A1000
0000B0000B0000
0000B100380000
00007400740000
00004700A10000
00000B00B00000
00000B03800000
00000836500000
0000047A100000
000001BB000000
000000C8000000
00000084000000
ENDCHAR
STARTCHAR W
ENCODING 87
SWIDTH 534 0
DWIDTH 19 0
BBX 17 25 1 0
BITMAP
550000000000000280
470000000000000480
380000000000000570
290000000000000660
1A0000000000000750
0B0000000000000840
0B0000000000000930
0B0000000000000A20
0B000004C700000B10
0B00000B1B00000B00
0A10000B0A10000B00
0920000C0A10000B00
0830000C0B00000B00
0740000A2C00001B00
065000069900002A00
05600001E500003900
04700000E200004800
038000069900005700
0290001B0A30006600
01A0009402B0007500
00B005900058008400
00B02B000009509200
00B1C2000000B3A100
00BB300000001CC000
00A40000000002D000
ENDCHAR
STARTCHAR X
ENCODING 88
SWIDTH 318 0
DWIDTH 11 0
BBX 11 25 0 0
BITMAP
0A0000000640
084000000B00
02A000003900
00B100009300
00660001B000
001B00056000
0009300B1000
0003802A0000
0000B0740000
000075C00000
00001D800000
00000C300000
00001E700000
000066C00000
0000B1840000
000390390000
0008400B1000
000C00066000
00570001B000
00A20000A200
01A000004800
075000000C00
0C0000000840
3800000002A0
8300000000A0
ENDCHAR
STARTCHAR Y
ENCODING 89
SWIDTH 370 0
DWIDTH 13 0
BBX 13 25 0 0
BITMAP
830000000000A0
3A000000000570
0B200000000B10
04800000004900
00C1000000A200
0067000002A000
000C0000094000
000750001B0000
0001B000750000
00009300C00000
00002A06700000
00000A2B100000
000004C9000000
000000D2000000
000000B0000000
000000B0000000
000000B0000000
000000B0000000
000000B0000000
000000B0000000
000000B0000000
000000B0000000
000000B0000000
000000B0000000
000000A0000000
ENDCHAR
STARTCHAR Z
ENCODING 90
SWIDTH 309 0
DWIDTH 11 0
BBX 11 25 0 0
BITMAP
0BBBBBBBBE20
000000000B00
000000005700
00000000A100
00000001A000
000000065000
0000000B0000
000000390000
000000830000
000000B00000
000004700000
00000A200000
00001B000000
000066000000
0000B1000000
0002A0000000
000840000000
000B00000000
004800000000
009200000000
01B000000000
056000000000
0A1000000000
2A0000000000
6DBBBBBBBB50
ENDCHAR
STARTCHAR bracketleft
ENCODING 91
SWIDTH 193 0
DWIDTH 7 0
BBX 5 29 2 -2
BITMAP
ABBBA0
C00000
C00000
C00000
C00000
C00000
C00000
C00000
C00000
C00000
C00000
C00000
C00000
C00000
C00000
C00000
C00000
C00000
C00000
C00000
C00000
C00000
C00000
C00000
C00000
C00000
C00000
C00000
ABBBA0
ENDCHAR
STARTCHAR backslash
ENCODING 92
SWIDTH 292 0
DWIDTH 11 0
BBX 11 29 0 -2
BITMAP
A10000000000
750000000000
2A0000000000
0B1000000000
075000000000
02A000000000
00B100000000
007500000000
002A00000000
000B10000000
000750000000
0002A0000000
0000B0000000
000075000000
00002A000000
00000B000000
000007500000
000002A00000
000000B00000
000000750000
0000002A0000
0000000B0000
000000075000
00000002A000
00000000B000
000000007400
000000002900
000000000C00
000000000730
ENDCHAR
STARTCHAR bracketright
ENCODING 93
SWIDTH 193 0
DWIDTH 7 0
BBX 5 29 0 -2
BITMAP
ABBBA0
0000B0
0000B0
0000B0
0000B0
0000B0
0000B0
0000B0
0000B0
0000B0
0000B0
0000B0
0000B0
0000B0
0000B0
0000B0
0000B0
0000B0
0000B0
0000B0
0000B0
0000B0
0000B0
0000B0
0000B0
0000B0
0000B0
0000B0
ABBBA0
ENDCHAR
STARTCHAR asciicircum
ENCODING 94
SWIDTH 416 0
DWIDTH 15 0
BBX 15 14 0 11
BITMAP
0000000800000000
0000005D50000000
000000C2C0000000
0000058085000000
00000C101C000000
0000580008500000
0000B10001B00000
0005800000940000
000B1000002B0000
0048000000094000
00B100000002B000
0480000000009400
0B10000000002B00
2800000000000920
ENDCHAR
STARTCHAR underscore
ENCODING 95
SWIDTH 556 0
DWIDTH 20 0
BBX 18 1 1 -1
BITMAP
5BBBBBBBBBBBBBBBB5
ENDCHAR
STARTCHAR grave
ENCODING 96
SWIDTH 201 0
DWIDTH 7 0
BBX 3 5 2 19
BITMAP
1000
A300
2B00
0760
00B0
ENDCHAR
STARTCHAR a
ENCODING 97
SWIDTH 315 0
DWIDTH 11 0
BBX 10 17 1 0
BITMAP
005BBB4000
06A101C100
1B00006600
0000004700
0000003800
0000003800
0000003800
000003A800
0004B96800
01B8103800
1C30003800
7600003800
C000003800
C000003800
C000009800
68002B7900
08BBA20BC4
ENDCHAR
STARTCHAR b
ENCODING 98
SWIDTH 298 0
DWIDTH 11 0
BBX 8 25 2 0
BITMAP
A0000000
C0000000
C0000000
C0000000
C0000000
C0000000
C0000000
C0000000
C2BBB200
CB202B00
C2000750
C00001A0
C00000C0
C00000A1
C0000093
C0000084
C0000084
C0000084
C0000093
C00000B1
C00000B0
C00001A0
C2000750
CB102B00
A3BCB200
ENDCHAR
STARTCHAR c
ENCODING 99
SWIDTH 275 0
DWIDTH 10 0
BBX 8 17 1 0
BITMAP
002BBB30
00C302C1
07600058
0C100008
2A000000
57000000
75000000
84000000
84000000
84000000
75000000
57000000
2A000000
0C000009
07600058
00C302C1
002BCB30
ENDCHAR
STARTCHAR d
ENCODING 100
SWIDTH 298 0
DWIDTH 11 0
BBX 8 25 1 0
BITMAP
00000028
00000039
00000039
00000039
00000039
00000039
00000039
00000039
004CC939
02B104C9
09300069
0B000039
39000039
56000039
75000039
84000039
84000039
84000039
75000039
56000039
39000039
0B000039
09300059
02B103C9
004CCA38
ENDCHAR
STARTCHAR e
ENCODING 101
SWIDTH 285 0
DWIDTH 10 0
BBX 9 17 1 0
BITMAP
002BBB3000
00B202C100
0750005700
0B00001C00
2900000B10
5600000A20
7CBBBBBC20
8400000000
8400000000
8500000000
7600000000
5800000000
2B00000000
0C10000B00
0670003900
00B301C200
002ABB3000
ENDCHAR
STARTCHAR f
ENCODING 102
SWIDTH 178 0
DWIDTH 6 0
BBX 9 25 0 0
BITMAP
000029BB30
0003B30000
000B100000
002A000000
0047000000
0047000000
0047000000
0047000000
ABCDBB3000
0047000000
0047000000
0047000000
0047000000
0047000000
0047000000
0047000000
0047000000
0047000000
0047000000
0047000000
0047000000
0047000000
0047000000
0047000000
0046000000
ENDCHAR
STARTCHAR g
ENCODING 103
SWIDTH 302 0
DWIDTH 11 0
BBX 12 26 -1 -7
BITMAP
000000000500
000000007800
00003BBBC100
0001C202D100
000850005700
000D00000C00
002B00000A10
003900000930
004800000840
003900000930
001B00000B20
000C10001D00
000760006800
0001C303C100
00018ECA2000
001B30000000
005700000000
001C62000000
00115ABA7200
03C200014A91
0C2000000059
2A000000000C
2A000000000C
0B200000003A
02C6100017C2
0017BCBCB710
ENDCHAR
STARTCHAR h
ENCODING 104
SWIDTH 307 0
DWIDTH 11 0
BBX 8 25 2 0
BITMAP
B0000000
C0000000
C0000000
C0000000
C0000000
C0000000
C0000000
C0000000
C08CBA20
C95003A0
D50000A1
C0000083
C0000084
C0000084
C0000084
C0000084
C0000084
C0000084
C0000084
C0000084
C0000084
C0000084
C0000084
C0000084
B0000073
ENDCHAR
STARTCHAR i
ENCODING 105
SWIDTH 141 0
DWIDTH 5 0
BBX 1 23 2 0
BITMAP
B0
C0
C0
B0
00
00
A0
C0
C0
C0
C0
C0
C0
C0
C0
C0
C0
C0
C0
C0
C0
C0
A0
ENDCHAR
STARTCHAR j
ENCODING 106
SWIDTH 141 0
DWIDTH 5 0
BBX 6 30 -3 -7
BITMAP
00000B
00000C
00000C
00000B
000000
000000
00000A
00000C
00000C
00000C
00000C
00000C
00000C
00000C
00000C
00000C
00000C
00000C
00000C
00000C
00000C
00000C
00000C
00000C
00000B
00000B
00002A
000085
001790
8BB600
ENDCHAR
STARTCHAR k
ENCODING 107
SWIDTH 287 0
DWIDTH 10 0
BBX 8 25 2 0
BITMAP
A0000000
C0000000
C0000000
C0000000
C0000000
C0000000
C0000000
C0000000
C0000071
C00004A0
C0001C10
C000B300
C0077000
C04C0000
C1CC0000
CA475000
D702A000
C000B100
C0006600
C0001B00
C0000A20
C0000570
C00000C0
C0000093
B0000037
ENDCHAR
STARTCHAR l
ENCODING 108
SWIDTH 141 0
DWIDTH 5 0
BBX 1 25 2 0
BITMAP
B0
C0
C0
C0
C0
C0
C0
C0
C0
C0
C0
C0
C0
C0
C0
C0
C0
C0
C0
C0
C0
C0
C0
C0
B0
ENDCHAR
STARTCHAR m
ENCODING 109
SWIDTH 407 0
DWIDTH 15 0
BBX 11 17 2 0
BITMAP
B600000006C0
C8B10001B8C0
C05C101C50C0
C004C1B400C0
C0006D6000C0
C0001F1000C0
C0007B7000C0
C000A2A000C0
C000B0B000C0
C000C0C000C0
C00095A000C0
C0003B3000C0
C000000000C0
C000000000C0
C000000000C0
C000000000C0
A000000000A0
ENDCHAR
STARTCHAR n
ENCODING 110
SWIDTH 307 0
DWIDTH 11 0
BBX 8 17 2 0
BITMAP
A08CBA20
C95003A0
D50000A1
C0000083
C0000084
C0000084
C0000084
C0000084
C0000084
C0000084
C0000084
C0000084
C0000084
C0000084
C0000084
C0000084
A0000073
ENDCHAR
STARTCHAR o
ENCODING 111
SWIDTH 309 0
DWIDTH 11 0
BBX 9 17 1 0
BITMAP
002BBB2000
00C302B100
0760005800
0C10000C00
2A00000930
5700000660
7500000390
8400000290
84000002A0
8400000290
7500000390
5700000660
2A00000930
0C00000C00
0760005800
00C302C100
002BCB3000
ENDCHAR
STARTCHAR p
ENCODING 112
SWIDTH 299 0
DWIDTH 11 0
BBX 10 26 0 -7
BITMAP
0050000000
00B0000000
00CACBA200
2BE2003C00
52B0000660
00B00001B0
00B00000C0
00B00000A2
00B0000084
00B0000084
00B0000075
00B0000084
00B0000084
00B00000A2
00B00000C0
00B00001B0
00C2000660
00CB202B00
00B2BCB200
00B0000000
00B0000000
00B0000000
00B0000000
00B0000000
00B0000000
00A0000000
ENDCHAR
STARTCHAR q
ENCODING 113
SWIDTH 286 0
DWIDTH 10 0
BBX 10 24 1 -7
BITMAP
005CC93800
02B104C800
0A30006800
0B00003800
3900003800
5600003800
7500003800
8400003800
8400003800
8400003800
7500003800
5600003800
3800003800
0B00003800
0A30005800
02B103C800
005CCA4800
0000003800
0000003800
0000003800
0000003800
0000002900
0000001B00
00000005C4
ENDCHAR
STARTCHAR r
ENCODING 114
SWIDTH 277 0
DWIDTH 10 0
BBX 8 17 2 0
BITMAP
A08CCB20
CA5003B0
D50000A1
C0000083
C0000042
C0000000
C0000000
C0000000
C0000000
C0000000
C0000000
C0000000
C0000000
C0000000
C0000000
C0000000
A0000000
ENDCHAR
STARTCHAR s
ENCODING 115
SWIDTH 257 0
DWIDTH 9 0
BBX 8 17 1 0
BITMAP
02ABB700
1C200860
66000070
84000000
75000000
2A000000
09600000
00A60000
00099000
00006A00
00000680
000000B1
00000084
70000075
B10000A2
4B1006A0
04BBC800
ENDCHAR
STARTCHAR t
ENCODING 116
SWIDTH 207 0
DWIDTH 7 0
BBX 7 22 0 0
BITMAP
00050000
000B0000
000B0000
000B0000
000B0000
8BBEBB50
000B0000
000B0000
000B0000
000B0000
000B0000
000B0000
000B0000
000B0000
000B0000
000B0000
000B0000
000B0000
000B0000
000C0000
000B3000
0002AB40
ENDCHAR
STARTCHAR u
ENCODING 117
SWIDTH 307 0
DWIDTH 11 0
BBX 8 17 1 0
BITMAP
3800000A
3800000B
3800000B
3800000B
3800000B
3800000B
3800000B
3800000B
3800000B
3800000B
3800000B
3800000B
3800000B
2900000B
1B00004D
0A3004AC
01ABC91A
ENDCHAR
STARTCHAR v
ENCODING 118
SWIDTH 285 0
DWIDTH 10 0
BBX 10 17 0 0
BITMAP
3700000037
1B00000074
0B000000B1
08300000B0
0470000380
01B0000740
00B0000B10
0083000B00
0047003800
001B007500
000B00A100
000830B000
0004738000
0001A65000
0000BA1000
00008C0000
0000480000
ENDCHAR
STARTCHAR w
ENCODING 119
SWIDTH 396 0
DWIDTH 14 0
BBX 13 17 1 0
BITMAP
A0000000000820
C0000000000A10
B0000000000B00
A2000000000B00
930008A0000B00
74001B85001B00
66003857002A00
57003857003800
38001A65005700
2A000CB2006600
1B0007B0007400
0C000AC1009300
0C00596800A200
0C01C10A40B100
0B2B3001C2C000
09B600003BC000
0780000005B000
ENDCHAR
STARTCHAR x
ENCODING 120
SWIDTH 244 0
DWIDTH 9 0
BBX 8 17 0 0
BITMAP
0A100037
07500093
01B000C0
00A20570
00570A20
000B1B00
0009A500
0003E100
0003E000
0009B500
000C2B00
00570A20
00B20570
02B000C0
07500084
0C00003A
2800000A
ENDCHAR
STARTCHAR y
ENCODING 121
SWIDTH 285 0
DWIDTH 10 0
BBX 10 24 0 -7
BITMAP
3700000037
1B00000074
0B000000B1
08300000B0
0570000380
01A0000750
00B0000A10
0093000B00
0056002900
001A006500
000B00A100
000920B000
0005629000
0002A55000
0000B92000
0000AC0000
0000690000
0000560000
0000920000
0000B00000
0001A00000
0006600000
003C000000
7BA2000000
ENDCHAR
STARTCHAR z
ENCODING 122
SWIDTH 233 0
DWIDTH 8 0
BBX 8 17 0 0
BITMAP
09BBBBC8
00000083
000000B0
00000570
00000A10
00001A00
00007400
0000B000
00038000
00092000
001B0000
00660000
00B10000
02900000
08400000
0B000000
3EBBBBB7
ENDCHAR
STARTCHAR braceleft
ENCODING 123
SWIDTH 306 0
DWIDTH 11 0
BBX 11 29 0 -2
BITMAP
00000019BBA0
000000850000
000000B00000
000000B00000
000000B00000
000000B00000
000000B00000
000000B00000
000000B00000
000000B00000
000000B00000
000000B00000
000000B00000
08BB84800000
3A006F300000
08BB95800000
000000C00000
000000B00000
000000B00000
000000B00000
000000B00000
000000B00000
000000B00000
000000B00000
000000B00000
000000B00000
000000B00000
000000850000
00000019BBA0
ENDCHAR
STARTCHAR bar
ENCODING 124
SWIDTH 141 0
DWIDTH 5 0
BBX 1 29 2 -2
BITMAP
A0
C0
C0
C0
C0
C0
C0
C0
C0
C0
C0
C0
C0
C0
C0
C0
C0
C0
C0
C0
C0
C0
C0
C0
C0
C0
C0
C0
A0
ENDCHAR
STARTCHAR braceright
ENCODING 125
SWIDTH 306 0
DWIDTH 11 0
BBX 11 29 0 -2
BITMAP
ABB910000000
000580000000
0000B0000000
0000B0000000
0000B0000000
0000B0000000
0000B0000000
0000B0000000
0000B0000000
0000B0000000
0000B0000000
0000B0000000
0000B0000000
0000848BB800
00003F700A30
0000859BB800
0000B0000000
0000B0000000
0000B0000000
0000B0000000
0000B0000000
0000B0000000
0000B0000000
0000B0000000
0000B0000000
0000B0000000
0000B0000000
000580000000
ABB910000000
ENDCHAR
STARTCHAR asciitilde
ENCODING 126
SWIDTH 433 0
DWIDTH 16 0
BBX 14 3 1 8
BITMAP
02ABB610000091
1C3016BA400790
640000038BB700
ENDCHAR
STARTCHAR uni00A0
ENCODING 160
SWIDTH 240 0
DWIDTH 9 0
BBX 1 1 0 0
BITMAP
00
ENDCHAR
STARTCHAR exclamdown
ENCODING 161
SWIDTH 141 0
DWIDTH 5 0
BBX 1 25 2 -5
BITMAP
A0
C0
C0
A0
00
00
00
B0
C0
C0
C0
C0
C0
C0
C0
C0
C0
C0
C0
C0
C0
C0
C0
C0
A0
ENDCHAR
STARTCHAR cent
ENCODING 162
SWIDTH 275 0
DWIDTH 10 0
BBX 8 23 1 -3
BITMAP
0000A000
0000B000
0000B000
0001C200
005BDB60
02C0B0A3
0A30B02A
1C00B004
4900B000
6600B000
8400B000
8400B000
8400B000
7600B000
4800B000
1C00B004
0A30B02A
03B0B0A4
007BDA70
0002D300
0000B000
0000B000
0000A000
ENDCHAR
STARTCHAR sterling
ENCODING 163
SWIDTH 331 0
DWIDTH 12 0
BBX 12 25 0 0
BITMAP
0005BBBB4000
00981001A600
058000000B10
0B1000000450
0B0000000000
0C0000000000
0C0000000000
0B1000000000
067000000000
00C100000000
006700000000
000C10000000
000580000000
09BBEBBBB200
000094000000
000066000000
000057000000
000056000000
000084000000
0000C0000000
000580000000
001C10000000
00A500000000
087000000000
4FBBBBBBBBB1
ENDCHAR
STARTCHAR currency
ENCODING 164
SWIDTH 506 0
DWIDTH 18 0
BBX 16 16 1 3
BITMAP
0200000000000011
1C300000000001B3
01B317BBBB811B30
001BC600004CC300
000C30000001C200
0067000000004900
00B1000000000C00
00C0000000000B10
00C0000000000B10
00B2000000000C00
0068000000005900
000B40000002C100
002CC820016CB400
02C205ABBB711B40
1C200000000001B3
0100000000000011
ENDCHAR
STARTCHAR yen
ENCODING 165
SWIDTH 370 0
DWIDTH 13 0
BBX 13 25 0 0
BITMAP
830000000000A0
39000000000580
0B100000000B10
05700000003A00
00C00000009300
0075000001B000
001B0000075000
000930000C0000
0003A000570000
0000B100B10000
00005703900000
00000C09300000
0000077B000000
000001E5000000
000000B0000000
000000B0000000
00BBBBEBBBB300
000000B0000000
000000B0000000
00BBBBEBBBB300
000000B0000000
000000B0000000
000000B0000000
000000B0000000
000000A0000000
ENDCHAR
STARTCHAR brokenbar
ENCODING 166
SWIDTH 141 0
DWIDTH 5 0
BBX 1 29 2 -2
BITMAP
A0
C0
C0
C0
C0
C0
C0
C0
C0
C0
C0
C0
50
00
00
00
00
B0
C0
C0
C0
C0
C0
C0
C0
C0
C0
C0
B0
ENDCHAR
STARTCHAR section
ENCODING 167
SWIDTH 303 0
DWIDTH 11 0
BBX 10 30 0 -3
BITMAP
0006BCB600
00B8101790
0760000085
0C00000019
0C00000000
0C00000000
0940000000
03C0000000
006B100000
0004C50000
00016E9100
003C747C10
01C20006B0
05800000B3
0840000066
0840000056
0570000083
00B20001B0
002B204A20
0001AE4000
000006C300
0000002C40
00000001C2
0000000058
000000001B
000000000C
380000002A
0B20000085
02C3002990
0029BCB500
ENDCHAR
STARTCHAR dieresis
ENCODING 168
SWIDTH 241 0
DWIDTH 9 0
BBX 5 4 2 19
BITMAP
B00370
C00480
C00480
B00370
ENDCHAR
STARTCHAR copyright
ENCODING 169
SWIDTH 772 0
DWIDTH 28 0
BBX 26 25 1 0
BITMAP
0000000016ABBBB95100000000
0000002AB62000037B81000000
000008B300000000004C500000
0000A700000000000000980000
000A50000006CB820000087000
0068000000780044000000A400
01C0000001B000000000002C00
08500000065000000000000850
0C0000000A20000000000002A0
390000000B00000000000000C0
660000000B0000000000000093
750000001B0000000000000084
840000001A0000000000000075
750000001B0000000000000084
660000000B0000000000000093
390000000B00000000000000C0
0C0000000A20000000000002A0
08500000065000000000000850
01C0000001B000000000002B00
0078000000780044000000A400
000A50000007CB810000086000
0001B700000000000000980000
000008A300000000004C500000
0000003AA62000037B91000000
0000000026ABBBB95100000000
ENDCHAR
STARTCHAR ordfeminine
ENCODING 170
SWIDTH 231 0
DWIDTH 8 0
BBX 8 11 0 14
BITMAP
008DD500
07801D00
01000A20
00000A20
00001B20
0018BD20
03B40A20
0B100A20
1A000A20
0C018E20
06DD66D4
ENDCHAR
STARTCHAR guillemotleft
ENCODING 171
SWIDTH 403 0
DWIDTH 15 0
BBX 12 14 1 3
BITMAP
000000900009
00000A5000A5
000096000870
000780007800
00690005A000
04A0004B0000
3B1003B10000
5A0004B00000
079000690000
008700088000
000A50009600
0000B4000A50
00001B3001B3
000001B0001B
ENDCHAR
STARTCHAR logicalnot
ENCODING 172
SWIDTH 557 0
DWIDTH 20 0
BBX 18 7 1 5
BITMAP
5BBBBBBBBBBBBBBBC7
000000000000000029
000000000000000029
000000000000000029
000000000000000029
000000000000000029
000000000000000003
ENDCHAR
STARTCHAR uni00AD
ENCODING 173
SWIDTH 286 0
DWIDTH 10 0
BBX 8 1 1 10
BITMAP
5BBBBBB9
ENDCHAR
STARTCHAR registered
ENCODING 174
SWIDTH 772 0
DWIDTH 28 0
BBX 26 25 1 0
BITMAP
0000000016ABBBB95100000000
0000002AB62000037B81000000
000008B300000000004C500000
0000A700000000000000980000
000A5000000000000000087000
0068000000CBBB50000000A400
01C0000000C001B30000002C00
0850000000C000290000000850
0C00000000C0000B00000002A0
3900000000C0000C00000000C0
6600000000C000590000000093
7500000000C004D20000000084
8400000000EBCB900000000075
7500000000C000A30000000084
6600000000C000480000000093
3900000000C0000B00000000C0
0C00000000C0000B10000002A0
0850000000C000075000000850
01C0000000C000038000002B00
0078000000C00000B00000A400
000A5000004000004000086000
0001B700000000000000980000
000008A300000000004C500000
0000003AA62000037B91000000
0000000026ABBBB95100000000
ENDCHAR
STARTCHAR macron
ENCODING 175
SWIDTH 266 0
DWIDTH 10 0
BBX 6 1 2 21
BITMAP
8BBBB4
ENDCHAR
STARTCHAR degree
ENCODING 176
SWIDTH 350 0
DWIDTH 13 0
BBX 10 9 1 16
BITMAP
0017BBA400
01C5001980
0A30000094
1B0000002A
390000000B
1B0000002A
0A400000A4
01C5001980
0017BBA400
ENDCHAR
STARTCHAR plusminus
ENCODING 177
SWIDTH 577 0
DWIDTH 21 0
BBX 18 17 1 0
BITMAP
000000000A00000000
000000000B00000000
000000000B00000000
000000000B00000000
000000000B00000000
000000000B00000000
000000000B00000000
1BBBBBBBBEBBBBBBBA
000000000B00000000
000000000B00000000
000000000B00000000
000000000B00000000
000000000B00000000
000000000B00000000
000000000200000000
000000000000000000
1BBBBBBBBBBBBBBBBA
ENDCHAR
STARTCHAR uni00B2
ENCODING 178
SWIDTH 207 0
DWIDTH 7 0
BBX 6 11 1 14
BITMAP
08DD40
6901C0
4100A2
0000B1
0002A0
000A20
007500
048000
1A0000
830000
DDDDD4
ENDCHAR
STARTCHAR uni00B3
ENCODING 179
SWIDTH 214 0
DWIDTH 8 0
BBX 6 11 1 14
BITMAP
09DC30
4802A0
0000B0
000770
00ED10
0005B0
0000A2
000084
0000A2
A303B0
3CDB20
ENDCHAR
STARTCHAR acute
ENCODING 180
SWIDTH 201 0
DWIDTH 7 0
BBX 3 5 2 19
BITMAP
0010
01C0
0850
3A00
A200
ENDCHAR
STARTCHAR uni00B5
ENCODING 181
SWIDTH 335 0
DWIDTH 12 0
BBX 10 24 2 -7
BITMAP
A000007300
C000008400
C000008400
C000008400
C000008400
C000008400
C000008400
C000008400
C000008400
C000008400
C000008400
C000008400
C000008400
C000008400
C00000A400
D90018C400
C5BBB53CC1
C000000000
C000000000
C000000000
C000000000
C000000000
C000000000
A000000000
ENDCHAR
STARTCHAR paragraph
ENCODING 182
SWIDTH 471 0
DWIDTH 17 0
BBX 13 25 2 0
BITMAP
0018CEFFF300A0
02DFFFFFF300B0
0CFFFFFFF300B0
5FFFFFFFF300B0
9FFFFFFFF300B0
CFFFFFFFF300B0
CFFFFFFFF300B0
BFFFFFFFF300B0
8FFFFFFFF300B0
3FFFFFFFF300B0
09FFFFFFF300B0
00AFFFFFF300B0
00038AAAD300B0
000000008300B0
000000008300B0
000000008300B0
000000008300B0
000000008300B0
000000008300B0
000000008300B0
000000008300B0
000000008300B0
000000008300B0
000000008300B0
000000008300A0
ENDCHAR
STARTCHAR periodcentered
ENCODING 183
SWIDTH 181 0
DWIDTH 7 0
BBX 2 4 2 9
BITMAP
19
2A
2A
19
ENDCHAR
STARTCHAR cedilla
ENCODING 184
SWIDTH 232 0
DWIDTH 8 0
BBX 5 6 2 -6
BITMAP
042000
1DB500
330B10
000920
711B00
3BB400
ENDCHAR
STARTCHAR uni00B9
ENCODING 185
SWIDTH 176 0
DWIDTH 6 0
BBX 5 11 1 14
BITMAP
4BB000
83B000
00B000
00B000
00B000
00B000
00B000
00B000
00B000
00B000
CDFD90
ENDCHAR
STARTCHAR ordmasculine
ENCODING 186
SWIDTH 201 0
DWIDTH 7 0
BBX 7 11 0 14
BITMAP
008DA000
05906700
0A200B00
0B000920
0A000840
1A000750
0A000840
0B000920
0A200B00
04906800
008DA100
ENDCHAR
STARTCHAR guillemotright
ENCODING 187
SWIDTH 403 0
DWIDTH 15 0
BBX 12 14 1 4
BITMAP
660005700000
0A5000960000
00B4000B4000
001C3001B300
0002C2001C20
00003C1002C1
000004B0003C
00000590005A
00004B0003B0
0003B1002B10
002C1002C200
01C2001B3000
1B3000B40000
540005500000
ENDCHAR
STARTCHAR onequarter
ENCODING 188
SWIDTH 527 0
DWIDTH 19 0
BBX 17 25 1 0
BITMAP
05B900000000008300
184A0000000001B000
002A00000000084000
002A000000001B0000
002A00000000850000
002A00000001B00000
002A00000007500000
002A0000001B000000
002A00000075000000
002A000001B0000000
1DDED8000750000000
000000001C00000000
000000007600000000
00000000C000000000
0000000660000A0000
0000000C0000660000
000000660000B10000
000000C00005764000
00000660000B174000
00000C100048074000
0000670000A1074000
0000B10001DBBDCB10
000570000000074000
000B10000000074000
004700000000064000
ENDCHAR
STARTCHAR onehalf
ENCODING 189
SWIDTH 540 0
DWIDTH 19 0
BBX 17 25 1 0
BITMAP
05B900000000008300
184A0000000001B000
002A00000000084000
002A000000001B0000
002A00000000850000
002A00000001B00000
002A00000007500000
002A0000001B000000
002A00000075000000
002A000001B0000000
1DDED8000750000000
000000001C00000000
000000007600000000
00000000C000000000
0000000660005DD800
0000000C0002C10A30
000000660002300660
000000C00000000740
000006600000000B00
00000C100000007500
000067000000049000
0000B10000001A0000
000570000000A20000
000B10000004700000
004700000009DDDD70
ENDCHAR
STARTCHAR threequarters
ENCODING 190
SWIDTH 517 0
DWIDTH 19 0
BBX 17 25 1 0
BITMAP
09DC30000000008300
4802A000000001B000
0000B0000000084000
0007700000001B0000
00ED10000000850000
0005B0000001B00000
0000A2000007500000
00008400001B000000
0000A2000075000000
A303B00001B0000000
3CDB20000750000000
000000001C00000000
000000007600000000
00000000C000000000
000000066000082000
0000000C00001B0000
000000660000750000
000000C00001B19000
00000660000651A000
00000C10000B01A000
00006700005601A000
0000B10000ACBCEB50
00057000000001A000
000B1000000001A000
004700000000019000
ENDCHAR
STARTCHAR questiondown
ENCODING 191
SWIDTH 300 0
DWIDTH 11 0
BBX 8 25 2 -5
BITMAP
00047000
00047000
00047000
00047000
00000000
00000000
00000000
00065000
0001C000
00008400
00008400
0000B100
00049000
000C2000
00860000
03B00000
0B300000
4A000000
A3000000
C0000000
C0000000
C0000002
A3000048
3B1003C1
04BBB920
ENDCHAR
STARTCHAR Agrave
ENCODING 192
SWIDTH 414 0
DWIDTH 15 0
BBX 15 30 0 0
BITMAP
0000092000000000
000003B000000000
0000008500000000
0000001500000000
0000000000000000
0000000C00000000
0000004F20000000
0000008B60000000
000000C3A0000000
000001C0C0000000
00000580A3000000
0000094067000000
00000D102B000000
00002B000C100000
0000670009400000
0000A30005800000
0000D00001C00000
0003B00000C10000
0007700000850000
000B300000490000
001EBBBBBBCD0000
004A0000000C2000
0085000000077000
00C100000003B000
01C000000000D000
0570000000009400
0930000000005800
0C00000000001B00
2A00000000000B10
5500000000000740
ENDCHAR
STARTCHAR Aacute
ENCODING 193
SWIDTH 414 0
DWIDTH 15 0
BBX 15 30 0 0
BITMAP
000000001A000000
00000000A4000000
0000000490000000
0000000510000000
0000000000000000
0000000C00000000
0000004F20000000
0000008B60000000
000000C3A0000000
000001C0C0000000
00000580A3000000
0000094067000000
00000D102B000000
00002B000C100000
0000670009400000
0000A30005800000
0000D00001C00000
0003B00000C10000
0007700000850000
000B300000490000
001EBBBBBBCD0000
004A0000000C2000
0085000000077000
00C100000003B000
01C000000000D000
0570000000009400
0930000000005800
0C00000000001B00
2A00000000000B10
5500000000000740
ENDCHAR
STARTCHAR Acircumflex
ENCODING 194
SWIDTH 414 0
DWIDTH 15 0
BBX 15 30 0 0
BITMAP
0000002B10000000
000000B7A0000000
0000086086000000
0000080008000000
0000000000000000
0000000C00000000
0000004F20000000
0000008B60000000
000000C3A0000000
000001C0C0000000
00000580A3000000
0000094067000000
00000D102B000000
00002B000C100000
0000670009400000
0000A30005800000
0000D00001C00000
0003B00000C10000
0007700000850000
000B300000490000
001EBBBBBBCD0000
004A0000000C2000
0085000000077000
00C100000003B000
01C000000000D000
0570000000009400
0930000000005800
0C00000000001B00
2A00000000000B10
5500000000000740
ENDCHAR
STARTCHAR Atilde
ENCODING 195
SWIDTH 414 0
DWIDTH 15 0
BBX 15 29 0 0
BITMAP
00002BB604600000
00008217BB100000
0000000000000000
0000000000000000
0000000C00000000
0000004F20000000
0000008B60000000
000000C3A0000000
000001C0C0000000
00000580A3000000
0000094067000000
00000D102B000000
00002B000C100000
0000670009400000
0000A30005800000
0000D00001C00000
0003B00000C10000
0007700000850000
000B300000490000
001EBBBBBBCD0000
004A0000000C2000
0085000000077000
00C100000003B000
01C000000000D000
0570000000009400
0930000000005800
0C00000000001B00
2A00000000000B10
5500000000000740
ENDCHAR
STARTCHAR Adieresis
ENCODING 196
SWIDTH 414 0
DWIDTH 15 0
BBX 15 30 0 0
BITMAP
0000083046000000
0000083057000000
0000083057000000
0000083046000000
0000000000000000
0000000C00000000
0000004F20000000
0000008B60000000
000000C3A0000000
000001C0C0000000
00000580A3000000
0000094067000000
00000D102B000000
00002B000C100000
0000670009400000
0000A30005800000
0000D00001C00000
0003B00000C10000
0007700000850000
000B300000490000
001EBBBBBBCD0000
004A0000000C2000
0085000000077000
00C100000003B000
01C000000000D000
0570000000009400
0930000000005800
0C00000000001B00
2A00000000000B10
5500000000000740
ENDCHAR
STARTCHAR Aring
ENCODING 197
SWIDTH 414 0
DWIDTH 15 0
BBX 15 30 0 0
BITMAP
0000009B80000000
0000065075000000
0000066075000000
0000009B80000000
0000000000000000
0000000C00000000
0000004F20000000
0000008B60000000
000000C3A0000000
000001C0C0000000
00000580A3000000
0000094067000000
00000D102B000000
00002B000C100000
0000670009400000
0000A30005800000
0000D00001C00000
0003B00000C10000
0007700000850000
000B300000490000
001EBBBBBBCD0000
004A0000000C2000
0085000000077000
00C100000003B000
01C000000000D000
0570000000009400
0930000000005800
0C00000000001B00
2A00000000000B10
5500000000000740
ENDCHAR
STARTCHAR AE
ENCODING 198
SWIDTH 545 0
DWIDTH 20 0
BBX 19 25 0 0
BITMAP
00000000006DBBBBBB10
0000000000D600000000
0000000004D600000000
000000000A8600000000
000000002B5600000000
00000000865600000000
00000000D15600000000
00000005905600000000
0000000B305600000000
0000003C005600000000
00000096005600000000
000001D1005DBBBBB800
00000690005600000000
00000D30005600000000
00004C00005600000000
0000ADBBBBD600000000
0002D000005600000000
00087000005600000000
000D1000005600000000
00590000005600000000
00B30000005600000000
02B00000005600000000
09400000005600000000
1C000000005600000000
56000000005DBBBBBB10
ENDCHAR
STARTCHAR Ccedilla
ENCODING 199
SWIDTH 366 0
DWIDTH 13 0
BBX 11 31 1 -6
BITMAP
00004BBBB710
0008A20006A0
005A00000000
00C100000000
067000000000
0B2000000000
0C0000000000
3A0000000000
570000000000
660000000000
750000000000
840000000000
840000000000
840000000000
750000000000
660000000000
570000000000
3A0000000000
0C0000000000
0B2000000000
067000000000
00C100000000
005900000000
0008A20005A0
00004BBBC710
000000520000
000001DB4000
00000431B000
00000000A100
00000711B000
000004BB3000
ENDCHAR
STARTCHAR Egrave
ENCODING 200
SWIDTH 309 0
DWIDTH 11 0
BBX 8 30 2 0
BITMAP
03900000
00A30000
002C0000
00051000
00000000
CBBBBBB7
C0000000
C0000000
C0000000
C0000000
C0000000
C0000000
C0000000
C0000000
C0000000
C0000000
CBBBBBB3
C0000000
C0000000
C0000000
C0000000
C0000000
C0000000
C0000000
C0000000
C0000000
C0000000
C0000000
C0000000
CBBBBBB7
ENDCHAR
STARTCHAR Eacute
ENCODING 201
SWIDTH 309 0
DWIDTH 11 0
BBX 8 30 2 0
BITMAP
00000840
00003B00
0000B200
00015000
00000000
CBBBBBB7
C0000000
C0000000
C0000000
C0000000
C0000000
C0000000
C0000000
C0000000
C0000000
C0000000
CBBBBBB3
C0000000
C0000000
C0000000
C0000000
C0000000
C0000000
C0000000
C0000000
C0000000
C0000000
C0000000
C0000000
CBBBBBB7
ENDCHAR
STARTCHAR Ecircumflex
ENCODING 202
SWIDTH 309 0
DWIDTH 11 0
BBX 8 30 2 0
BITMAP
00076000
004AB300
02C12C10
05300440
00000000
CBBBBBB7
C0000000
C0000000
C0000000
C0000000
C0000000
C0000000
C0000000
C0000000
C0000000
C0000000
CBBBBBB3
C0000000
C0000000
C0000000
C0000000
C0000000
C0000000
C0000000
C0000000
C0000000
C0000000
C0000000
C0000000
CBBBBBB7
ENDCHAR
STARTCHAR Edieresis
ENCODING 203
SWIDTH 309 0
DWIDTH 11 0
BBX 8 30 2 0
BITMAP
01900A00
01A00C00
01A00C00
01900A00
00000000
CBBBBBB7
C0000000
C0000000
C0000000
C0000000
C0000000
C0000000
C0000000
C0000000
C0000000
C0000000
CBBBBBB3
C0000000
C0000000
C0000000
C0000000
C0000000
C0000000
C0000000
C0000000
C0000000
C0000000
C0000000
C0000000
CBBBBBB7
ENDCHAR
STARTCHAR Igrave
ENCODING 204
SWIDTH 141 0
DWIDTH 5 0
BBX 3 30 0 0
BITMAP
8300
2B00
0770
0060
0000
00A0
00C0
00C0
00C0
00C0
00C0
00C0
00C0
00C0
00C0
00C0
00C0
00C0
00C0
00C0
00C0
00C0
00C0
00C0
00C0
00C0
00C0
00C0
00C0
00A0
ENDCHAR
STARTCHAR Iacute
ENCODING 205
SWIDTH 141 0
DWIDTH 5 0
BBX 3 30 2 0
BITMAP
01B0
0850
3B00
4200
0000
A000
C000
C000
C000
C000
C000
C000
C000
C000
C000
C000
C000
C000
C000
C000
C000
C000
C000
C000
C000
C000
C000
C000
C000
A000
ENDCHAR
STARTCHAR Icircumflex
ENCODING 206
SWIDTH 141 0
DWIDTH 5 0
BBX 5 30 0 0
BITMAP
01B200
0A7B00
680680
800080
000000
00A000
00C000
00C000
00C000
00C000
00C000
00C000
00C000
00C000
00C000
00C000
00C000
00C000
00C000
00C000
00C000
00C000
00C000
00C000
00C000
00C000
00C000
00C000
00C000
00A000
ENDCHAR
STARTCHAR Idieresis
ENCODING 207
SWIDTH 141 0
DWIDTH 5 0
BBX 5 30 0 0
BITMAP
640380
740380
740380
640380
000000
00A000
00C000
00C000
00C000
00C000
00C000
00C000
00C000
00C000
00C000
00C000
00C000
00C000
00C000
00C000
00C000
00C000
00C000
00C000
00C000
00C000
00C000
00C000
00C000
00A000
ENDCHAR
STARTCHAR Eth
ENCODING 208
SWIDTH 396 0
DWIDTH 14 0
BBX 13 25 0 0
BITMAP
00CBBBBB920000
00C000004C2000
00C0000002B000
00C00000007500
00C00000001B00
00C00000000B10
00C00000000840
00C00000000570
00C00000000390
00C000000001A0
00C000000001B0
00C000000000C0
00C000000000C0
6BEBBBB00000C0
00C000000001B0
00C000000001A0
00C00000000390
00C00000000570
00C00000000840
00C00000000B10
00C00000001B00
00C00000007600
00C0000002C000
00C000004C2000
00CBBBBB920000
ENDCHAR
STARTCHAR Ntilde
ENCODING 209
SWIDTH 422 0
DWIDTH 15 0
BBX 11 29 2 0
BITMAP
001BB7128000
006406BB2000
000000000000
000000000000
B100000000A0
D600000000B0
CB00000000B0
C840000000B0
C2A0000000B0
C0B1000000B0
C057000000B0
C00C000000B0
C007500000B0
C001B00000B0
C000A20000B0
C000390000B0
C0000B1000B0
C000066000B0
C00001B000B0
C000008400B0
C000002A00B0
C000000B10B0
C000000570B0
C0000000C0B0
C000000075B0
C00000001BB0
C00000000AD0
C000000003F0
A000000000B0
ENDCHAR
STARTCHAR Ograve
ENCODING 210
SWIDTH 446 0
DWIDTH 16 0
BBX 14 30 1 0
BITMAP
00002A00000000
00000940000000
000001C1000000
00000042000000
00000000000000
00005BBBB50000
0008A100199000
005A0000008600
01C10000000C10
06700000000660
0B2000000001B0
0C0000000000C1
3A000000000093
57000000000075
66000000000057
75000000000048
84000000000039
84000000000039
84000000000039
75000000000048
66000000000057
57000000000075
3A000000000093
0C0000000000C1
0B2000000001B0
06700000000660
01C10000000C10
00590000008600
0008A100199000
00005BBBB50000
ENDCHAR
STARTCHAR Oacute
ENCODING 211
SWIDTH 446 0
DWIDTH 16 0
BBX 14 30 1 0
BITMAP
00000000650000
00000002C00000
0000000A300000
00000006000000
00000000000000
00005BBBB50000
0008A100199000
005A0000008600
01C10000000C10
06700000000660
0B2000000001B0
0C0000000000C1
3A000000000093
57000000000075
66000000000057
75000000000048
84000000000039
84000000000039
84000000000039
75000000000048
66000000000057
57000000000075
3A000000000093
0C0000000000C1
0B2000000001B0
06700000000660
01C10000000C10
00590000008600
0008A100199000
00005BBBB50000
ENDCHAR
STARTCHAR Ocircumflex
ENCODING 212
SWIDTH 446 0
DWIDTH 16 0
BBX 14 30 1 0
BITMAP
00000067000000
000003BA400000
00001C11C10000
00004400350000
00000000000000
00005BBBB50000
0008A100199000
005A0000008600
01C10000000C10
06700000000660
0B2000000001B0
0C0000000000C1
3A000000000093
57000000000075
66000000000057
75000000000048
84000000000039
84000000000039
84000000000039
75000000000048
66000000000057
57000000000075
3A000000000093
0C0000000000C1
0B2000000001B0
06700000000660
01C10000000C10
00590000008600
0008A100199000
00005BBBB50000
ENDCHAR
STARTCHAR Otilde
ENCODING 213
SWIDTH 446 0
DWIDTH 16 0
BBX 14 29 1 0
BITMAP
00007CA3091000
0001A03AC70000
00000000000000
00000000000000
00005BBBB50000
0008A100199000
005A0000008600
01C10000000C10
06700000000660
0B2000000001B0
0C0000000000C1
3A000000000093
57000000000075
66000000000057
75000000000048
84000000000039
84000000000039
84000000000039
75000000000048
66000000000057
57000000000075
3A000000000093
0C0000000000C1
0B2000000001B0
06700000000660
01C10000000C10
00590000008600
0008A100199000
00005BBBB50000
ENDCHAR
STARTCHAR Odieresis
ENCODING 214
SWIDTH 446 0
DWIDTH 16 0
BBX 14 30 1 0
BITMAP
00000A00A00000
00000C00B00000
00000C00B00000
00000A00A00000
00000000000000
00005BBBB50000
0008A100199000
005A0000008600
01C10000000C10
06700000000660
0B2000000001B0
0C0000000000C1
3A000000000093
57000000000075
66000000000057
75000000000048
84000000000039
84000000000039
84000000000039
75000000000048
66000000000057
57000000000075
3A000000000093
0C0000000000C1
0B2000000001B0
06700000000660
01C10000000C10
00590000008600
0008A100199000
00005BBBB50000
ENDCHAR
STARTCHAR multiply
ENCODING 215
SWIDTH 445 0
DWIDTH 16 0
BBX 14 13 1 2
BITMAP
29000000000090
06A00000000B50
006A000000B500
0006A0000B5000
00006A00B50000
000006AB500000
000000CB000000
00000B56A00000
0000B5006A0000
000B500006A000
00B50000006A00
0B5000000006A0
14000000000051
ENDCHAR
STARTCHAR Oslash
ENCODING 216
SWIDTH 446 0
DWIDTH 16 0
BBX 14 25 1 0
BITMAP
00005BBBB501A0
0008A100198660
005A0000009D10
01C10000005E10
0670000000B860
0B2000000391B0
0C0000000A20C1
3A0000002A0093
57000000840075
66000001B00057
75000007500048
8400000B000039
84000056000039
840000B1000039
75000480000048
66000A10000057
57002900000065
2A009300000093
0C01A0000000C1
0B2840000001B0
068B0000000660
00D50000000C10
00D90000008600
0578A100199000
0A105BBBB50000
ENDCHAR
STARTCHAR Ugrave
ENCODING 217
SWIDTH 412 0
DWIDTH 15 0
BBX 12 30 1 0
BITMAP
0000A2000000
00003A000000
000009500000
000001500000
000000000000
38000000000A
38000000000B
38000000000B
38000000000B
38000000000B
38000000000B
38000000000B
38000000000B
38000000000B
38000000000B
38000000000B
38000000000B
38000000000B
38000000000B
38000000000B
38000000000B
38000000000B
38000000000B
38000000000B
39000000000B
1A000000000B
0C000000002A
0670000000A4
00A810002A70
0005BBBBA400
ENDCHAR
STARTCHAR Uacute
ENCODING 218
SWIDTH 412 0
DWIDTH 15 0
BBX 12 30 1 0
BITMAP
00000002A000
0000000A3000
000000490000
000000510000
000000000000
38000000000A
38000000000B
38000000000B
38000000000B
38000000000B
38000000000B
38000000000B
38000000000B
38000000000B
38000000000B
38000000000B
38000000000B
38000000000B
38000000000B
38000000000B
38000000000B
38000000000B
38000000000B
38000000000B
39000000000B
1A000000000B
0C000000002A
0670000000A4
00A810002A70
0005BBBBA400
ENDCHAR
STARTCHAR Ucircumflex
ENCODING 219
SWIDTH 412 0
DWIDTH 15 0
BBX 12 30 1 0
BITMAP
000002B10000
00000B790000
000086086000
000070007000
000000000000
38000000000A
38000000000B
38000000000B
38000000000B
38000000000B
38000000000B
38000000000B
38000000000B
38000000000B
38000000000B
38000000000B
38000000000B
38000000000B
38000000000B
38000000000B
38000000000B
38000000000B
38000000000B
38000000000B
39000000000B
1A000000000B
0C000000002A
0670000000A4
00A810002A70
0005BBBBA400
ENDCHAR
STARTCHAR Udieresis
ENCODING 220
SWIDTH 412 0
DWIDTH 15 0
BBX 12 30 1 0
BITMAP
000082055000
000092056000
000092056000
000082055000
000000000000
38000000000A
38000000000B
38000000000B
38000000000B
38000000000B
38000000000B
38000000000B
38000000000B
38000000000B
38000000000B
38000000000B
38000000000B
38000000000B
38000000000B
38000000000B
38000000000B
38000000000B
38000000000B
38000000000B
39000000000B
1A000000000B
0C000000002A
0670000000A4
00A810002A70
0005BBBBA400
ENDCHAR
STARTCHAR Yacute
ENCODING 221
SWIDTH 370 0
DWIDTH 13 0
BBX 13 30 0 0
BITMAP
00000000B00000
00000007700000
0000002C000000
00000033000000
00000000000000
830000000000A0
3A000000000570
0B200000000B10
04800000004900
00C1000000A200
0067000002A000
000C0000094000
000750001B0000
0001B000750000
00009300C00000
00002A06700000
00000A2B100000
000004C9000000
000000D2000000
000000B0000000
000000B0000000
000000B0000000
000000B0000000
000000B0000000
000000B0000000
000000B0000000
000000B0000000
000000B0000000
000000B0000000
000000A0000000
ENDCHAR
STARTCHAR Thorn
ENCODING 222
SWIDTH 341 0
DWIDTH 12 0
BBX 10 25 2 0
BITMAP
A000000000
C000000000
C000000000
C000000000
C000000000
CBBBBB6000
C000018900
C000000950
C0000002B0
C0000000C1
C0000000A2
C000000093
C0000000A2
C0000000C0
C000000490
C000001C20
C10005C400
CABBB81000
C000000000
C000000000
C000000000
C000000000
C000000000
C000000000
A000000000
ENDCHAR
STARTCHAR germandbls
ENCODING 223
SWIDTH 327 0
DWIDTH 12 0
BBX 8 25 2 0
BITMAP
03BBB500
1C200B30
660002A0
A20000C0
C00000A2
C0000093
C0000093
C0000092
C00000B1
C00000C0
C06CB790
C0C02D70
C07CB3A1
C0000056
C000001A
C000000B
C000000C
C000000C
C000000C
C000000C
C000002A
C0000065
C00000B0
C0001A50
A4BBB400
ENDCHAR
STARTCHAR agrave
ENCODING 224
SWIDTH 315 0
DWIDTH 11 0
BBX 10 24 1 0
BITMAP
0010000000
0076000000
000C100000
0004900000
0000A20000
0000000000
0000000000
005BBB4000
06A101C100
1B00006600
0000004700
0000003800
0000003800
0000003800
000003A800
0004B96800
01B8103800
1C30003800
7600003800
C000003800
C000003800
C000009800
68002B7900
08BBA20BC4
ENDCHAR
STARTCHAR aacute
ENCODING 225
SWIDTH 315 0
DWIDTH 11 0
BBX 10 24 1 0
BITMAP
0000001000
000003A000
00000B2000
0000670000
0000B00000
0000000000
0000000000
005BBB4000
06A101C100
1B00006600
0000004700
0000003800
0000003800
0000003800
000003A800
0004B96800
01B8103800
1C30003800
7600003800
C000003800
C000003800
C000009800
68002B7900
08BBA20BC4
ENDCHAR
STARTCHAR acircumflex
ENCODING 226
SWIDTH 315 0
DWIDTH 11 0
BBX 10 23 1 0
BITMAP
0001C20000
000A6B0000
0068067000
02B000B300
0110001100
0000000000
005BBB4000
06A101C100
1B00006600
0000004700
0000003800
0000003800
0000003800
000003A800
0004B96800
01B8103800
1C30003800
7600003800
C000003800
C000003800
C000009800
68002B7900
08BBA20BC4
ENDCHAR
STARTCHAR atilde
ENCODING 227
SWIDTH 315 0
DWIDTH 11 0
BBX 10 22 1 0
BITMAP
03BB702900
08206BB300
0000000000
0000000000
0000000000
005BBB4000
06A101C100
1B00006600
0000004700
0000003800
0000003800
0000003800
000003A800
0004B96800
01B8103800
1C30003800
7600003800
C000003800
C000003800
C000009800
68002B7900
08BBA20BC4
ENDCHAR
STARTCHAR adieresis
ENCODING 228
SWIDTH 315 0
DWIDTH 11 0
BBX 10 23 1 0
BITMAP
009101A000
00A201B000
00A201B000
009101A000
0000000000
0000000000
005BBB4000
06A101C100
1B00006600
0000004700
0000003800
0000003800
0000003800
000003A800
0004B96800
01B8103800
1C30003800
7600003800
C000003800
C000003800
C000009800
68002B7900
08BBA20BC4
ENDCHAR
STARTCHAR aring
ENCODING 229
SWIDTH 315 0
DWIDTH 11 0
BBX 10 24 1 0
BITMAP
0008B90000
0057067000
0083019000
0057067000
0008B90000
0000000000
0000000000
005BBB4000
06A101C100
1B00006600
0000004700
0000003800
0000003800
0000003800
000003A800
0004B96800
01B8103800
1C30003800
7600003800
C000003800
C000003800
C000009800
68002B7900
08BBA20BC4
ENDCHAR
STARTCHAR ae
ENCODING 230
SWIDTH 450 0
DWIDTH 16 0
BBX 15 17 1 0
BITMAP
007CBB3008CB3000
0A7001C16701C100
47000065A0006600
0000004B40001A00
0000003E00000C00
0000004B00000B00
0000004A00000A10
000148CDBBBBBC10
02AC855800000000
1D50003900000000
7600003900000000
C100001B00000000
C000000C00000000
C000000C10000800
A200009C70003900
3A001A71C201B200
06CBB4002BBB4000
ENDCHAR
STARTCHAR ccedilla
ENCODING 231
SWIDTH 275 0
DWIDTH 10 0
BBX 8 23 1 -6
BITMAP
002BBB30
00C302C1
07600058
0C100008
2A000000
57000000
75000000
84000000
84000000
84000000
75000000
57000000
2A000000
0C000009
07600058
00C302C1
002BCB30
00016000
0008C900
00070660
00000280
00340760
0019B800
ENDCHAR
STARTCHAR egrave
ENCODING 232
SWIDTH 285 0
DWIDTH 10 0
BBX 9 24 1 0
BITMAP
0010000000
0075000000
001C100000
0005800000
0000A10000
0000000000
0000000000
002BBB3000
00B202C100
0750005700
0B00001C00
2900000B10
5600000A20
7CBBBBBC20
8400000000
8400000000
8500000000
7600000000
5800000000
2B00000000
0C10000B00
0670003900
00B301C200
002ABB3000
ENDCHAR
STARTCHAR eacute
ENCODING 233
SWIDTH 285 0
DWIDTH 10 0
BBX 9 24 1 0
BITMAP
0000001000
0000039000
00000B1000
0000670000
0000B00000
0000000000
0000000000
002BBB3000
00B202C100
0750005700
0B00001C00
2900000B10
5600000A20
7CBBBBBC20
8400000000
8400000000
8500000000
7600000000
5800000000
2B00000000
0C10000B00
0670003900
00B301C200
002ABB3000
ENDCHAR
STARTCHAR ecircumflex
ENCODING 234
SWIDTH 285 0
DWIDTH 10 0
BBX 9 23 1 0
BITMAP
0002C20000
000B6B0000
0077077000
02B000B200
0110001100
0000000000
002BBB3000
00B202C100
0750005700
0B00001C00
2900000B10
5600000A20
7CBBBBBC20
8400000000
8400000000
8500000000
7600000000
5800000000
2B00000000
0C10000B00
0670003900
00B301C200
002ABB3000
ENDCHAR
STARTCHAR edieresis
ENCODING 235
SWIDTH 285 0
DWIDTH 10 0
BBX 9 23 1 0
BITMAP
00A1019000
00A101A000
00A101A000
00A1019000
0000000000
0000000000
002BBB3000
00B202C100
0750005700
0B00001C00
2900000B10
5600000A20
7CBBBBBC20
8400000000
8400000000
8500000000
7600000000
5800000000
2B00000000
0C10000B00
0670003900
00B301C200
002ABB3000
ENDCHAR
STARTCHAR igrave
ENCODING 236
SWIDTH 141 0
DWIDTH 5 0
BBX 4 24 0 0
BITMAP
1000
7600
0C10
0490
00A2
0000
0000
00A0
00C0
00C0
00C0
00C0
00C0
00C0
00C0
00C0
00C0
00C0
00C0
00C0
00C0
00C0
00C0
00A0
ENDCHAR
STARTCHAR iacute
ENCODING 237
SWIDTH 141 0
DWIDTH 5 0
BBX 3 24 2 0
BITMAP
0010
03A0
0B20
6700
B000
0000
0000
A000
C000
C000
C000
C000
C000
C000
C000
C000
C000
C000
C000
C000
C000
C000
C000
A000
ENDCHAR
STARTCHAR icircumflex
ENCODING 238
SWIDTH 141 0
DWIDTH 5 0
BBX 7 23 -1 0
BITMAP
001C2000
00A6B000
06806800
2B000A30
11000110
00000000
000A0000
000C0000
000C0000
000C0000
000C0000
000C0000
000C0000
000C0000
000C0000
000C0000
000C0000
000C0000
000C0000
000C0000
000C0000
000C0000
000A0000
ENDCHAR
STARTCHAR idieresis
ENCODING 239
SWIDTH 141 0
DWIDTH 5 0
BBX 5 23 0 0
BITMAP
9100A0
A201B0
A201B0
9100A0
000000
000000
00A000
00C000
00C000
00C000
00C000
00C000
00C000
00C000
00C000
00C000
00C000
00C000
00C000
00C000
00C000
00C000
00A000
ENDCHAR
STARTCHAR eth
ENCODING 240
SWIDTH 319 0
DWIDTH 11 0
BBX 9 25 1 0
BITMAP
0490000000
006A000000
0006900010
0000878B40
0027BD5000
0094049000
000000B200
0000004800
001ABB5C00
00B4007D40
0670000870
0C100002A0
2A000000C0
57000000B0
75000000C0
84000000B0
84000000C0
84000000C0
75000000C0
57000002A0
2A00000670
0C10000A20
0670002A00
00B401B200
001ACB4000
ENDCHAR
STARTCHAR ntilde
ENCODING 241
SWIDTH 307 0
DWIDTH 11 0
BBX 8 22 2 0
BITMAP
3BB70290
8206BB30
00000000
00000000
00000000
A08CBA20
C95003A0
D50000A1
C0000083
C0000084
C0000084
C0000084
C0000084
C0000084
C0000084
C0000084
C0000084
C0000084
C0000084
C0000084
C0000084
A0000073
ENDCHAR
STARTCHAR ograve
ENCODING 242
SWIDTH 309 0
DWIDTH 11 0
BBX 9 24 1 0
BITMAP
0010000000
0076000000
000C100000
0004900000
0000A20000
0000000000
0000000000
002BBB2000
00C302B100
0760005800
0C10000C00
2A00000930
5700000660
7500000390
8400000290
84000002A0
8400000290
7500000390
5700000660
2A00000930
0C00000C00
0760005800
00C302C100
002BCB3000
ENDCHAR
STARTCHAR oacute
ENCODING 243
SWIDTH 309 0
DWIDTH 11 0
BBX 9 24 1 0
BITMAP
0000001000
000002A000
00000B2000
0000580000
0000B10000
0000000000
0000000000
002BBB2000
00C302B100
0760005800
0C10000C00
2A00000930
5700000660
7500000390
8400000290
84000002A0
8400000290
7500000390
5700000660
2A00000930
0C00000C00
0760005800
00C302C100
002BCB3000
ENDCHAR
STARTCHAR ocircumflex
ENCODING 244
SWIDTH 309 0
DWIDTH 11 0
BBX 9 23 1 0
BITMAP
0001C20000
000A6B0000
0058068000
02B000A300
0110001100
0000000000
002BBB2000
00C302B100
0760005800
0C10000C00
2A00000930
5700000660
7500000390
8400000290
84000002A0
8400000290
7500000390
5700000660
2A00000930
0C00000C00
0760005800
00C302C100
002BCB3000
ENDCHAR
STARTCHAR otilde
ENCODING 245
SWIDTH 309 0
DWIDTH 11 0
BBX 9 22 1 0
BITMAP
02BB711900
08306BB400
0000000000
0000000000
0000000000
002BBB2000
00C302B100
0760005800
0C10000C00
2A00000930
5700000660
7500000390
8400000290
84000002A0
8400000290
7500000390
5700000660
2A00000930
0C00000C00
0760005800
00C302C100
002BCB3000
ENDCHAR
STARTCHAR odieresis
ENCODING 246
SWIDTH 309 0
DWIDTH 11 0
BBX 9 23 1 0
BITMAP
009200A000
009200B000
009200B000
009200A000
0000000000
0000000000
002BBB2000
00C302B100
0760005800
0C10000C00
2A00000930
5700000660
7500000390
8400000290
84000002A0
8400000290
7500000390
5700000660
2A00000930
0C00000C00
0760005800
00C302C100
002BCB3000
ENDCHAR
STARTCHAR divide
ENCODING 247
SWIDTH 577 0
DWIDTH 21 0
BBX 18 17 1 0
BITMAP
000000000A00000000
000000000B00000000
000000000B00000000
000000000A00000000
000000000000000000
000000000000000000
000000000000000000
000000000000000000
1BBBBBBBBBBBBBBBBA
000000000000000000
000000000000000000
000000000000000000
000000000000000000
000000000A00000000
000000000B00000000
000000000B00000000
000000000A00000000
ENDCHAR
STARTCHAR oslash
ENCODING 248
SWIDTH 309 0
DWIDTH 11 0
BBX 9 17 1 0
BITMAP
002BBB2650
00C302BB10
0760006A00
0C1000AC00
2A0001B930
5700085660
75000C0480
84006703A0
8400B102A0
8404900290
750A200390
572A000660
2A84000830
0CB0000C00
0880005800
0CB202C100
382BCB3000
ENDCHAR
STARTCHAR ugrave
ENCODING 249
SWIDTH 307 0
DWIDTH 11 0
BBX 8 24 1 0
BITMAP
00100000
00760000
000C1000
00049000
0000A200
00000000
00000000
3800000A
3800000B
3800000B
3800000B
3800000B
3800000B
3800000B
3800000B
3800000B
3800000B
3800000B
3800000B
3800000B
2900000B
1B00004D
0A3004AC
01ABC91A
ENDCHAR
STARTCHAR uacute
ENCODING 250
SWIDTH 307 0
DWIDTH 11 0
BBX 8 24 1 0
BITMAP
00000010
000003A0
00000B20
00006700
0000B000
00000000
00000000
3800000A
3800000B
3800000B
3800000B
3800000B
3800000B
3800000B
3800000B
3800000B
3800000B
3800000B
3800000B
3800000B
2900000B
1B00004D
0A3004AC
01ABC91A
ENDCHAR
STARTCHAR ucircumflex
ENCODING 251
SWIDTH 307 0
DWIDTH 11 0
BBX 8 23 1 0
BITMAP
0001C200
000A6B00
00680670
02B000B3
01100011
00000000
3800000A
3800000B
3800000B
3800000B
3800000B
3800000B
3800000B
3800000B
3800000B
3800000B
3800000B
3800000B
3800000B
2900000B
1B00004D
0A3004AC
01ABC91A
ENDCHAR
STARTCHAR udieresis
ENCODING 252
SWIDTH 307 0
DWIDTH 11 0
BBX 8 23 1 0
BITMAP
009101A0
00A201B0
00A201B0
009101A0
00000000
00000000
3800000A
3800000B
3800000B
3800000B
3800000B
3800000B
3800000B
3800000B
3800000B
3800000B
3800000B
3800000B
3800000B
2900000B
1B00004D
0A3004AC
01ABC91A
ENDCHAR
STARTCHAR yacute
ENCODING 253
SWIDTH 285 0
DWIDTH 10 0
BBX 10 31 0 -7
BITMAP
0000001100
0000009400
000003A000
00000B2000
0000570000
0000000000
0000000000
3700000037
1B00000074
0B000000B1
08300000B0
0570000380
01A0000750
00B0000A10
0093000B00
0056002900
001A006500
000B00A100
000920B000
0005629000
0002A55000
0000B92000
0000AC0000
0000690000
0000560000
0000920000
0000B00000
0001A00000
0006600000
003C000000
7BA2000000
ENDCHAR
STARTCHAR thorn
ENCODING 254
SWIDTH 299 0
DWIDTH 11 0
BBX 10 32 0 -7
BITMAP
00A0000000
00B0000000
00B0000000
00B0000000
00B0000000
00B0000000
00B0000000
00B0000000
00CACBA200
2BE2003C00
52B0000660
00B00001B0
00B00000C0
00B00000A2
00B0000084
00B0000084
00B0000075
00B0000084
00B0000084
00B00000A2
00B00000C0
00B00001B0
00C2000660
00CB202B00
00B2BCB200
00B0000000
00B0000000
00B0000000
00B0000000
00B0000000
00B0000000
00A0000000
ENDCHAR
STARTCHAR ydieresis
ENCODING 255
SWIDTH 285 0
DWIDTH 10 0
BBX 10 30 0 -7
BITMAP
000A006400
001B007500
001B007500
000A006400
0000000000
0000000000
3700000037
1B00000074
0B000000B1
08300000B0
0570000380
01A0000750
00B0000A10
0093000B00
0056002900
001A006500
000B00A100
000920B000
0005629000
0002A55000
0000B92000
0000AC0000
0000690000
0000560000
0000920000
0000B00000
0001A00000
0006600000
003C000000
7BA2000000
ENDCHAR
STARTCHAR dotlessi
ENCODING 305
SWIDTH 141 0
DWIDTH 5 0
BBX 1 17 2 0
BITMAP
A0
C0
C0
C0
C0
C0
C0
C0
C0
C0
C0
C0
C0
C0
C0
C0
A0
ENDCHAR
STARTCHAR OE
ENCODING 338
SWIDTH 505 0
DWIDTH 18 0
BBX 16 25 1 0
BITMAP
00005BBBEBBBBBB7
0009A100B0000000
00690000B0000000
01D10000B0000000
06700000B0000000
0B100000B0000000
0C000000B0000000
39000000B0000000
57000000B0000000
75000000B0000000
74000000B0000000
84000000CBBBBBB3
84000000B0000000
84000000B0000000
75000000B0000000
66000000B0000000
48000000B0000000
2A000000B0000000
0C000000B0000000
0B200000B0000000
05800000B0000000
00C10000B0000000
005A0000B0000000
0008A100B0000000
00004BBBEBBBBBB7
ENDCHAR
STARTCHAR oe
ENCODING 339
SWIDTH 492 0
DWIDTH 18 0
BBX 16 17 1 0
BITMAP
002BBB20007CB700
00B302C107700860
076000581B0000C0
0C10000C66000084
2A000009E1000057
57000006D0000039
75000003EBBBBBC7
84000002B0000000
84000002B0000000
84000002B0000000
75000003D0000000
57000006E0000000
2A00000893000000
0C00000A38000056
076000560B1000B1
00C302B004900780
002BCB20006CC800
ENDCHAR
STARTCHAR Wcircumflex
ENCODING 372
SWIDTH 534 0
DWIDTH 19 0
BBX 17 30 1 0
BITMAP
00000000A200000000
000000097B00000000
000000590590000000
000000700071000000
000000000000000000
550000000000000280
470000000000000480
380000000000000570
290000000000000660
1A0000000000000750
0B0000000000000840
0B0000000000000930
0B0000000000000A20
0B000004C700000B10
0B00000B1B00000B00
0A10000B0A10000B00
0920000C0A10000B00
0830000C0B00000B00
0740000A2C00001B00
065000069900002A00
05600001E500003900
04700000E200004800
038000069900005700
0290001B0A30006600
01A0009402B0007500
00B005900058008400
00B02B000009509200
00B1C2000000B3A100
00BB300000001CC000
00A40000000002D000
ENDCHAR
STARTCHAR wcircumflex
ENCODING 373
SWIDTH 396 0
DWIDTH 14 0
BBX 13 23 1 0
BITMAP
000006A0000000
00002B86000000
0000B20B200000
00086002B00000
00020000200000
00000000000000
A0000000000820
C0000000000A10
B0000000000B00
A2000000000B00
930008A0000B00
74001B85001B00
66003857002A00
57003857003800
38001A65005700
2A000CB2006600
1B0007B0007400
0C000AC1009300
0C00596800A200
0C01C10A40B100
0B2B3001C2C000
09B600003BC000
0780000005B000
ENDCHAR
STARTCHAR Ycircumflex
ENCODING 374
SWIDTH 370 0
DWIDTH 13 0
BBX 13 30 0 0
BITMAP
000000A3000000
0000087B100000
00005905900000
00007100710000
00000000000000
830000000000A0
3A000000000570
0B200000000B10
04800000004900
00C1000000A200
0067000002A000
000C0000094000
000750001B0000
0001B000750000
00009300C00000
00002A06700000
00000A2B100000
000004C9000000
000000D2000000
000000B0000000
000000B0000000
000000B0000000
000000B0000000
000000B0000000
000000B0000000
000000B0000000
000000B0000000
000000B0000000
000000B0000000
000000A0000000
ENDCHAR
STARTCHAR ycircumflex
ENCODING 375
SWIDTH 285 0
DWIDTH 10 0
BBX 10 30 0 -7
BITMAP
00006A0000
0002B86000
000B20B200
0076002B00
0020000200
0000000000
3700000037
1B00000074
0B000000B1
08300000B0
0570000380
01A0000750
00B0000A10
0093000B00
0056002900
001A006500
000B00A100
000920B000
0005629000
0002A55000
0000B92000
0000AC0000
0000690000
0000560000
0000920000
0000B00000
0001A00000
0006600000
003C000000
7BA2000000
ENDCHAR
STARTCHAR Ydieresis
ENCODING 376
SWIDTH 370 0
DWIDTH 13 0
BBX 13 30 0 0
BITMAP
00005501900000
00005602A00000
00005602A00000
00005501900000
00000000000000
830000000000A0
3A000000000570
0B200000000B10
04800000004900
00C1000000A200
0067000002A000
000C0000094000
000750001B0000
0001B000750000
00009300C00000
00002A06700000
00000A2B100000
000004C9000000
000000D2000000
000000B0000000
000000B0000000
000000B0000000
000000B0000000
000000B0000000
000000B0000000
000000B0000000
000000B0000000
000000B0000000
000000B0000000
000000A0000000
ENDCHAR
STARTCHAR uni0237
ENCODING 567
SWIDTH 141 0
DWIDTH 5 0
BBX 6 24 -3 -7
BITMAP
00000A
00000C
00000C
00000C
00000C
00000C
00000C
00000C
00000C
00000C
00000C
00000C
00000C
00000C
00000C
00000C
00000C
00000C
00000B
00000B
00002A
000085
001790
8BB600
ENDCHAR
STARTCHAR circumflex
ENCODING 710
SWIDTH 280 0
DWIDTH 10 0
BBX 6 5 2 18
BITMAP
007800
03A940
1C11C1
95003A
200002
ENDCHAR
STARTCHAR ring
ENCODING 730
SWIDTH 238 0
DWIDTH 9 0
BBX 5 5 2 19
BITMAP
1AB600
930A30
B00550
930A30
1AB600
ENDCHAR
STARTCHAR tilde
ENCODING 732
SWIDTH 301 0
DWIDTH 11 0
BBX 7 2 2 20
BITMAP
4BB60380
9117BB20
ENDCHAR
STARTCHAR gravecomb
ENCODING 768
SWIDTH 0 0
DWIDTH 0 0
BBX 3 5 2 19
BITMAP
1000
A300
2B00
0760
00B0
ENDCHAR
STARTCHAR acutecomb
ENCODING 769
SWIDTH 0 0
DWIDTH 0 0
BBX 3 5 2 19
BITMAP
0010
01C0
0850
3A00
A200
ENDCHAR
STARTCHAR uni0302
ENCODING 770
SWIDTH 0 0
DWIDTH 0 0
BBX 6 5 2 18
BITMAP
007800
03A940
1C11C1
95003A
200002
ENDCHAR
STARTCHAR tildecomb
ENCODING 771
SWIDTH 0 0
DWIDTH 0 0
BBX 7 2 2 20
BITMAP
4BB60380
9117BB20
ENDCHAR
STARTCHAR uni0307
ENCODING 775
SWIDTH 0 0
DWIDTH 0 0
BBX 1 4 2 19
BITMAP
B0
C0
C0
B0
ENDCHAR
STARTCHAR uni0308
ENCODING 776
SWIDTH 0 0
DWIDTH 0 0
BBX 5 4 2 19
BITMAP
B00370
C00480
C00480
B00370
ENDCHAR
STARTCHAR uni030A
ENCODING 778
SWIDTH 0 0
DWIDTH 0 0
BBX 5 5 2 19
BITMAP
1AB600
930A30
B00550
930A30
1AB600
ENDCHAR
STARTCHAR uni0327
ENCODING 807
SWIDTH 0 0
DWIDTH 0 0
BBX 5 6 2 -6
BITMAP
042000
1DB500
330B10
000920
711B00
3BB400
ENDCHAR
STARTCHAR Wgrave
ENCODING 7808
SWIDTH 534 0
DWIDTH 19 0
BBX 17 30 1 0
BITMAP
000000740000000000
0000001C0000000000
000000068000000000
000000006000000000
000000000000000000
550000000000000280
470000000000000480
380000000000000570
290000000000000660
1A0000000000000750
0B0000000000000840
0B0000000000000930
0B0000000000000A20
0B000004C700000B10
0B00000B1B00000B00
0A10000B0A10000B00
0920000C0A10000B00
0830000C0B00000B00
0740000A2C00001B00
065000069900002A00
05600001E500003900
04700000E200004800
038000069900005700
0290001B0A30006600
01A0009402B0007500
00B005900058008400
00B02B000009509200
00B1C2000000B3A100
00BB300000001CC000
00A40000000002D000
ENDCHAR
STARTCHAR wgrave
ENCODING 7809
SWIDTH 396 0
DWIDTH 14 0
BBX 13 24 1 0
BITMAP
00001000000000
0000C100000000
00005800000000
00000A30000000
000002A0000000
00000000000000
00000000000000
A0000000000820
C0000000000A10
B0000000000B00
A2000000000B00
930008A0000B00
74001B85001B00
66003857002A00
57003857003800
38001A65005700
2A000CB2006600
1B0007B0007400
0C000AC1009300
0C00596800A200
0C01C10A40B100
0B2B3001C2C000
09B600003BC000
0780000005B000
ENDCHAR
STARTCHAR Wacute
ENCODING 7810
SWIDTH 534 0
DWIDTH 19 0
BBX 17 30 1 0
BITMAP
0000000000B0000000
000000000760000000
000000002B00000000
000000003200000000
000000000000000000
550000000000000280
470000000000000480
380000000000000570
290000000000000660
1A0000000000000750
0B0000000000000840
0B0000000000000930
0B0000000000000A20
0B000004C700000B10
0B00000B1B00000B00
0A10000B0A10000B00
0920000C0A10000B00
0830000C0B00000B00
0740000A2C00001B00
065000069900002A00
05600001E500003900
04700000E200004800
038000069900005700
0290001B0A30006600
01A0009402B0007500
00B005900058008400
00B02B000009509200
00B1C2000000B3A100
00BB300000001CC000
00A40000000002D000
ENDCHAR
STARTCHAR wacute
ENCODING 7811
SWIDTH 396 0
DWIDTH 14 0
BBX 13 24 1 0
BITMAP
00000001100000
00000009400000
0000003A000000
000000B2000000
00000570000000
00000000000000
00000000000000
A0000000000820
C0000000000A10
B0000000000B00
A2000000000B00
930008A0000B00
74001B85001B00
66003857002A00
57003857003800
38001A65005700
2A000CB2006600
1B0007B0007400
0C000AC1009300
0C00596800A200
0C01C10A40B100
0B2B3001C2C000
09B600003BC000
0780000005B000
ENDCHAR
STARTCHAR Wdieresis
ENCODING 7812
SWIDTH 534 0
DWIDTH 19 0
BBX 17 30 1 0
BITMAP
000000650280000000
000000650390000000
000000650390000000
000000650280000000
000000000000000000
550000000000000280
470000000000000480
380000000000000570
290000000000000660
1A0000000000000750
0B0000000000000840
0B0000000000000930
0B0000000000000A20
0B000004C700000B10
0B00000B1B00000B00
0A10000B0A10000B00
0920000C0A10000B00
0830000C0B00000B00
0740000A2C00001B00
065000069900002A00
05600001E500003900
04700000E200004800
038000069900005700
0290001B0A30006600
01A0009402B0007500
00B005900058008400
00B02B000009509200
00B1C2000000B3A100
00BB300000001CC000
00A40000000002D000
ENDCHAR
STARTCHAR wdieresis
ENCODING 7813
SWIDTH 396 0
DWIDTH 14 0
BBX 13 23 1 0
BITMAP
0001A007400000
0001A007400000
0001A007400000
0001A007400000
00000000000000
00000000000000
A0000000000820
C0000000000A10
B0000000000B00
A2000000000B00
930008A0000B00
74001B85001B00
66003857002A00
57003857003800
38001A65005700
2A000CB2006600
1B0007B0007400
0C000AC1009300
0C00596800A200
0C01C10A40B100
0B2B3001C2C000
09B600003BC000
0780000005B000
ENDCHAR
STARTCHAR uni1E9E
ENCODING 7838
SWIDTH 375 0
DWIDTH 14 0
BBX 10 25 2 0
BITMAP
019CBB5000
0B5001A700
5800000C20
9300000670
C0000002A0
C0000001B0
C0000001B0
C0000002A0
C000000480
C000000740
C01ABA4B00
C07602DA00
C02BCA3560
C0000000A0
C000000074
C000000047
C000000039
C00000002A
C000000039
C000000057
C000000084
C0000000C0
C000000760
C110017900
A3BBBB6000
ENDCHAR
STARTCHAR Ygrave
ENCODING 7922
SWIDTH 370 0
DWIDTH 13 0
BBX 13 30 0 0
BITMAP
00007500000000
00001C10000000
00000580000000
00000060000000
00000000000000
830000000000A0
3A000000000570
0B200000000B10
04800000004900
00C1000000A200
0067000002A000
000C0000094000
000750001B0000
0001B000750000
00009300C00000
00002A06700000
00000A2B100000
000004C9000000
000000D2000000
000000B0000000
000000B0000000
000000B0000000
000000B0000000
000000B0000000
000000B0000000
000000B0000000
000000B0000000
000000B0000000
000000B0000000
000000A0000000
ENDCHAR
STARTCHAR ygrave
ENCODING 7923
SWIDTH 285 0
DWIDTH 10 0
BBX 10 31 0 -7
BITMAP
0001000000
000C100000
0004900000
0000A30000
00002A0000
0000000000
0000000000
3700000037
1B00000074
0B000000B1
08300000B0
0570000380
01A0000750
00B0000A10
0093000B00
0056002900
001A006500
000B00A100
000920B000
0005629000
0002A55000
0000B92000
0000AC0000
0000690000
0000560000
0000920000
0000B00000
0001A00000
0006600000
003C000000
7BA2000000
ENDCHAR
STARTCHAR endash
ENCODING 8211
SWIDTH 425 0
DWIDTH 15 0
BBX 13 1 1 8
BITMAP
5BBBBBBBBBBB90
ENDCHAR
STARTCHAR emdash
ENCODING 8212
SWIDTH 770 0
DWIDTH 28 0
BBX 26 1 1 8
BITMAP
5BBBBBBBBBBBBBBBBBBBBBBBB2
ENDCHAR
STARTCHAR quoteleft
ENCODING 8216
SWIDTH 145 0
DWIDTH 5 0
BBX 4 7 1 18
BITMAP
04C1
0C10
3900
3800
3800
3800
1300
ENDCHAR
STARTCHAR quoteright
ENCODING 8217
SWIDTH 145 0
DWIDTH 5 0
BBX 3 7 1 18
BITMAP
0230
0560
0560
0560
0660
0B30
A700
ENDCHAR
STARTCHAR quotesinglbase
ENCODING 8218
SWIDTH 145 0
DWIDTH 5 0
BBX 4 7 0 -3
BITMAP
0040
00B1
00B1
00B1
00B0
02C0
2C30
ENDCHAR
STARTCHAR quotedblleft
ENCODING 8220
SWIDTH 219 0
DWIDTH 8 0
BBX 6 7 1 18
BITMAP
04C198
0C1590
390840
380830
380830
380830
130310
ENDCHAR
STARTCHAR quotedblright
ENCODING 8221
SWIDTH 219 0
DWIDTH 8 0
BBX 6 7 1 18
BITMAP
023040
0560A1
0560A1
0560A1
0660B1
0B31C0
A72C30
ENDCHAR
STARTCHAR quotedblbase
ENCODING 8222
SWIDTH 219 0
DWIDTH 8 0
BBX 6 7 0 -3
BITMAP
004004
00B10B
00B10B
00B10B
00B01B
02C068
2C36A1
ENDCHAR
STARTCHAR bullet
ENCODING 8226
SWIDTH 355 0
DWIDTH 13 0
BBX 9 9 2 8
BITMAP
0016750000
05EFFFD300
3FFFFFFE10
AFFFFFFF60
CFFFFFFF90
BFFFFFFF80
6FFFFFFF30
0CFFFFF900
008DFC6000
ENDCHAR
STARTCHAR ellipsis
ENCODING 8230
SWIDTH 651 0
DWIDTH 23 0
BBX 19 4 2 0
BITMAP
19000000091000000380
2A0000000A1000000380
2A0000000A1000000380
19000000091000000380
ENDCHAR
STARTCHAR guilsinglleft
ENCODING 8249
SWIDTH 263 0
DWIDTH 9 0
BBX 7 14 1 3
BITMAP
00000090
00000A50
00009600
00078000
00690000
04A00000
3B100000
5A000000
07900000
00870000
000A5000
0000B400
00001B30
000001B0
ENDCHAR
STARTCHAR guilsinglright
ENCODING 8250
SWIDTH 263 0
DWIDTH 9 0
BBX 7 14 1 4
BITMAP
66000000
0A500000
00B40000
001C3000
0002C200
00003C10
000004B0
00000590
00004B00
0003B100
002C1000
01C20000
1B300000
54000000
ENDCHAR
STARTCHAR fraction
ENCODING 8260
SWIDTH 152 0
DWIDTH 5 0
BBX 13 25 -4 0
BITMAP
000000000000B0
00000000000480
00000000000B10
00000000004800
0000000000B100
00000000049000
000000000B2000
00000000390000
00000000A20000
00000003900000
0000000A200000
00000039000000
000000A2000000
000003A0000000
00000A30000000
00002A00000000
0000A300000000
0002A000000000
00093000000000
002A0000000000
00930000000000
02B00000000000
09400000000000
2B000000000000
74000000000000
ENDCHAR
STARTCHAR uni2074
ENCODING 8308
SWIDTH 247 0
DWIDTH 9 0
BBX 7 11 1 14
BITMAP
00091000
002A0000
00930000
01B28000
08439000
1B039000
75039000
BBBCDB40
00039000
00039000
00028000
ENDCHAR
STARTCHAR Euro
ENCODING 8364
SWIDTH 391 0
DWIDTH 14 0
BBX 13 25 0 0
BITMAP
0000006BBCC700
00000A81000680
00008700000000
0002C000000000
00085000000000
000C0000000000
002A0000000000
00580000000000
00750000000000
00840000000000
8BECBBBB200000
00A20000000000
00A20000000000
00A20000000000
8BECBBBB200000
00840000000000
00750000000000
00570000000000
002A0000000000
000C0000000000
00085000000000
0002B000000000
00008700000000
00000A81000680
0000006BBCC700
ENDCHAR
STARTCHAR trademark
ENCODING 8482
SWIDTH 506 0
DWIDTH 18 0
BBX 17 13 0 12
BITMAP
3FFFFFE03C20001B60
000840004BD705DA60
000840004818CA2560
000840004804D70560
0008400048084B0560
000840004805A80560
000840004801F30560
000840004805A80560
0008400048086B0560
000840004804E60560
000840004800000560
000840004800000560
000310001300000220
ENDCHAR
STARTCHAR minus
ENCODING 8722
SWIDTH 557 0
DWIDTH 20 0
BBX 18 1 1 11
BITMAP
6DDDDDDDDDDDDDDDD7
ENDCHAR
STARTCHAR uni2215
ENCODING 8725
SWIDTH 259 0
DWIDTH 9 0
BBX 10 26 0 0
BITMAP
0000000041
00000000C0
0000000390
0000000840
0000000C00
0000003900
0000008400
000000C000
0000029000
0000074000
00000B0000
00002A0000
0000750000
0000B00000
0002A00000
0007500000
000B000000
002A000000
0075000000
00B1000000
02A0000000
0750000000
0B10000000
2A00000000
7500000000
A100000000
ENDCHAR
STARTCHAR .notdef
ENCODING -1
SWIDTH 500 0
DWIDTH 18 0
BBX 16 32 1 -7
BITMAP
3FFFFFFFFFFFFFF3
3FECCCCCCCCCCEF3
3F900000000009F3
3F900000000009F3
3F900000000009F3
3F900000000009F3
3F900000000009F3
3F900000000009F3
3F900000000009F3
3F900000000009F3
3F900000000009F3
3F900000000009F3
3F900000000009F3
3F900000000009F3
3F900000000009F3
3F900000000009F3
3F900000000009F3
3F900000000009F3
3F900000000009F3
3F900000000009F3
3F900000000009F3
3F900000000009F3
3F900000000009F3
3F900000000009F3
3F900000000009F3
3F900000000009F3
3F900000000009F3
3F900000000009F3
3F900000000009F3
3F900000000009F3
3FECCCCCCCCCCEF3
3FFFFFFFFFFFFFF3
ENDCHAR
STARTCHAR NULL
ENCODING -1
SWIDTH 600 0
DWIDTH 22 0
BBX 1 1 0 0
BITMAP
00
ENDCHAR
STARTCHAR acutecomb.case
ENCODING -1
SWIDTH 0 0
DWIDTH 0 0
BBX 3 4 2 26
BITMAP
0380
0B20
7700
6000
ENDCHAR
STARTCHAR uni0302.case
ENCODING -1
SWIDTH 0 0
DWIDTH 0 0
BBX 6 4 2 26
BITMAP
00A300
087B10
4A04A0
710071
ENDCHAR
STARTCHAR uni0308.case
ENCODING -1
SWIDTH 0 0
DWIDTH 0 0
BBX 5 4 2 26
BITMAP
A00820
C00920
C00920
A00820
ENDCHAR
STARTCHAR uni0307.case
ENCODING -1
SWIDTH 0 0
DWIDTH 0 0
BBX 1 4 2 26
BITMAP
A0
C0
C0
A0
ENDCHAR
STARTCHAR gravecomb.case
ENCODING -1
SWIDTH 0 0
DWIDTH 0 0
BBX 3 4 2 26
BITMAP
A200
3A00
0950
0150
ENDCHAR
STARTCHAR uni030A.case
ENCODING -1
SWIDTH 0 0
DWIDTH 0 0
BBX 5 4 2 26
BITMAP
2BB500
A10B10
A20B10
2BB500
ENDCHAR
STARTCHAR tildecomb.case
ENCODING -1
SWIDTH 0 0
DWIDTH 0 0
BBX 7 2 2 27
BITMAP
4BB50640
9118BA00
ENDCHAR
ENDFONT
